<svg width="300" height="219" viewBox="0 0 300 219" fill="none" xmlns="http://www.w3.org/2000/svg">
<g clip-path="url(#clip0_12_60)">
<path d="M174.75 38.4646C180.372 38.4646 184.93 33.9066 184.93 28.2841C184.93 22.6615 180.372 18.1036 174.75 18.1036C169.127 18.1036 164.569 22.6615 164.569 28.2841C164.569 33.9066 169.127 38.4646 174.75 38.4646Z" fill="#F2F2F2"/>
<path d="M253.723 189.555C268.855 178.029 276.083 158.661 271.558 140.186C271.445 139.727 271.327 139.269 271.202 138.812C268.202 127.845 260.781 117.421 249.965 113.917C240.882 110.975 230.969 113.238 221.494 112.067C202.895 109.771 188.475 94.7214 178.329 78.9648C168.183 63.2082 160.385 45.5709 146.903 32.5537C124.68 11.0969 88.4292 6.47724 60.876 20.444C33.3228 34.4108 15.7717 65.3972 16.5202 96.2791C17.2687 127.161 35.6019 156.686 62.2263 172.351C72.007 178.106 83.3193 182.183 94.5774 180.756C104.346 179.518 113.222 174.27 122.944 172.711C138.23 170.261 153.419 177.173 166.64 185.226C179.861 193.28 192.632 202.826 207.656 206.56C222.245 210.185 240.318 199.765 253.723 189.555Z" fill="#F2F2F2"/>
<path d="M231.982 21.0925C231.65 20.8713 231.314 20.6616 230.983 20.4481C221.394 14.3155 211.116 9.33341 200.362 5.60481L197.868 40.004H182.06V0.58333C181.065 0.377438 180.062 0.182985 179.06 -3.05176e-05V40.004H160.274C149.932 40.004 140.014 35.8958 132.701 28.5831C125.389 21.2704 121.28 11.3522 121.28 1.01041V1.01038C120.274 1.22771 119.275 1.46029 118.276 1.70812V40.0041H102.975L100.6 7.20239C89.548 11.4408 79.0561 17.0146 69.3574 23.7996C69.1896 23.914 69.0218 24.0322 68.8579 24.1465C68.0153 24.7375 67.1841 25.34 66.3567 25.95V157.183H111.451L110.654 146.145L106.269 85.5405H194.57L190.186 146.145L189.389 157.183H233.983V22.4193C233.32 21.9694 232.653 21.5272 231.982 21.0925ZM118.276 75.5319H105.545L103.192 43.0085H118.276V75.5319ZM179.06 75.5319H157.677V74.8875C157.677 74.5777 157.616 74.271 157.498 73.9849C157.379 73.6988 157.205 73.4388 156.986 73.22C156.767 73.0011 156.507 72.8276 156.22 72.7094C155.934 72.5912 155.627 72.5307 155.317 72.5312H146.022C145.712 72.5311 145.406 72.5919 145.12 72.7103C144.834 72.8287 144.574 73.0022 144.355 73.2211C144.136 73.4399 143.963 73.6997 143.844 73.9856C143.726 74.2716 143.665 74.578 143.665 74.8875V75.5319H121.28V43.0085H179.06V75.5319ZM182.06 75.5319V43.0085H197.651L195.299 75.5319H182.06Z" fill="#372C2E"/>
<path d="M0 165.587C3.31229 169.512 6.89491 173.2 10.7216 176.625L289.278 177.006C293.105 173.581 296.688 169.893 300 165.968L0 165.587Z" fill="#372C2E"/>
<path d="M188.898 130.243V162.92C188.899 163.336 189.064 163.736 189.359 164.03C189.653 164.324 190.052 164.49 190.469 164.49H238.893C239.31 164.49 239.709 164.324 240.004 164.03C240.298 163.736 240.464 163.336 240.464 162.92V130.243C240.463 129.826 240.297 129.428 240.003 129.134C239.708 128.84 239.309 128.674 238.893 128.674H190.469C190.053 128.674 189.654 128.84 189.36 129.134C189.065 129.428 188.899 129.826 188.898 130.243Z" fill="#3F3D56"/>
<path d="M190.034 130.649V162.517C190.035 162.739 190.123 162.953 190.281 163.11C190.438 163.267 190.651 163.356 190.874 163.356H238.49C238.713 163.356 238.926 163.267 239.083 163.11C239.241 162.953 239.329 162.739 239.33 162.517V130.649C239.33 130.426 239.241 130.213 239.084 130.055C238.927 129.897 238.713 129.808 238.49 129.808H190.874C190.651 129.808 190.437 129.897 190.28 130.055C190.123 130.213 190.034 130.426 190.034 130.649Z" fill="#DE9E48"/>
<path d="M187.886 169.293C187.974 169.404 188.087 169.494 188.215 169.555C188.344 169.617 188.484 169.648 188.627 169.647H240.478C240.62 169.647 240.76 169.615 240.888 169.554C241.016 169.493 241.128 169.404 241.218 169.294C241.307 169.184 241.371 169.055 241.404 168.918C241.437 168.78 241.44 168.636 241.41 168.498L240.606 164.674C240.572 164.518 240.5 164.373 240.397 164.252C240.293 164.131 240.16 164.038 240.011 163.981C239.904 163.939 239.789 163.917 239.673 163.917H189.428C189.312 163.917 189.198 163.939 189.09 163.981C188.941 164.038 188.808 164.131 188.705 164.252C188.601 164.373 188.529 164.518 188.496 164.674L187.691 168.498C187.662 168.636 187.665 168.78 187.698 168.917C187.732 169.055 187.796 169.183 187.886 169.293Z" fill="#2F2E41"/>
<path d="M237.894 165.564H239.119C239.221 165.564 239.305 165.481 239.305 165.378V164.792C239.305 164.689 239.221 164.606 239.119 164.606H237.894C237.791 164.606 237.708 164.689 237.708 164.792V165.378C237.708 165.481 237.791 165.564 237.894 165.564Z" fill="#3F3D56"/>
<path d="M234.7 165.564H235.925C236.027 165.564 236.111 165.481 236.111 165.378V164.792C236.111 164.689 236.027 164.606 235.925 164.606H234.7C234.597 164.606 234.514 164.689 234.514 164.792V165.378C234.514 165.481 234.597 165.564 234.7 165.564Z" fill="#3F3D56"/>
<path d="M231.506 165.564H232.731C232.833 165.564 232.917 165.481 232.917 165.378V164.792C232.917 164.689 232.833 164.606 232.731 164.606H231.506C231.403 164.606 231.32 164.689 231.32 164.792V165.378C231.32 165.481 231.403 165.564 231.506 165.564Z" fill="#3F3D56"/>
<path d="M228.312 165.564H229.537C229.639 165.564 229.723 165.481 229.723 165.378V164.792C229.723 164.689 229.639 164.606 229.537 164.606H228.312C228.209 164.606 228.126 164.689 228.126 164.792V165.378C228.126 165.481 228.209 165.564 228.312 165.564Z" fill="#3F3D56"/>
<path d="M225.118 165.564H226.343C226.445 165.564 226.529 165.481 226.529 165.378V164.792C226.529 164.689 226.445 164.606 226.343 164.606H225.118C225.015 164.606 224.932 164.689 224.932 164.792V165.378C224.932 165.481 225.015 165.564 225.118 165.564Z" fill="#3F3D56"/>
<path d="M221.924 165.564H223.149C223.251 165.564 223.335 165.481 223.335 165.378V164.792C223.335 164.689 223.251 164.606 223.149 164.606H221.924C221.821 164.606 221.738 164.689 221.738 164.792V165.378C221.738 165.481 221.821 165.564 221.924 165.564Z" fill="#3F3D56"/>
<path d="M218.73 165.564H219.955C220.057 165.564 220.141 165.481 220.141 165.378V164.792C220.141 164.689 220.057 164.606 219.955 164.606H218.73C218.627 164.606 218.544 164.689 218.544 164.792V165.378C218.544 165.481 218.627 165.564 218.73 165.564Z" fill="#3F3D56"/>
<path d="M215.536 165.564H216.761C216.863 165.564 216.947 165.481 216.947 165.378V164.792C216.947 164.689 216.863 164.606 216.761 164.606H215.536C215.433 164.606 215.35 164.689 215.35 164.792V165.378C215.35 165.481 215.433 165.564 215.536 165.564Z" fill="#3F3D56"/>
<path d="M212.342 165.564H213.567C213.669 165.564 213.753 165.481 213.753 165.378V164.792C213.753 164.689 213.669 164.606 213.567 164.606H212.342C212.239 164.606 212.156 164.689 212.156 164.792V165.378C212.156 165.481 212.239 165.564 212.342 165.564Z" fill="#3F3D56"/>
<path d="M209.148 165.564H210.373C210.475 165.564 210.559 165.481 210.559 165.378V164.792C210.559 164.689 210.475 164.606 210.373 164.606H209.148C209.045 164.606 208.962 164.689 208.962 164.792V165.378C208.962 165.481 209.045 165.564 209.148 165.564Z" fill="#3F3D56"/>
<path d="M205.954 165.564H207.179C207.281 165.564 207.365 165.481 207.365 165.378V164.792C207.365 164.689 207.281 164.606 207.179 164.606H205.954C205.851 164.606 205.768 164.689 205.768 164.792V165.378C205.768 165.481 205.851 165.564 205.954 165.564Z" fill="#3F3D56"/>
<path d="M202.76 165.564H203.985C204.087 165.564 204.171 165.481 204.171 165.378V164.792C204.171 164.689 204.087 164.606 203.985 164.606H202.76C202.657 164.606 202.574 164.689 202.574 164.792V165.378C202.574 165.481 202.657 165.564 202.76 165.564Z" fill="#3F3D56"/>
<path d="M199.566 165.564H200.791C200.893 165.564 200.977 165.481 200.977 165.378V164.792C200.977 164.689 200.893 164.606 200.791 164.606H199.566C199.463 164.606 199.38 164.689 199.38 164.792V165.378C199.38 165.481 199.463 165.564 199.566 165.564Z" fill="#3F3D56"/>
<path d="M196.372 165.564H197.597C197.699 165.564 197.783 165.481 197.783 165.378V164.792C197.783 164.689 197.699 164.606 197.597 164.606H196.372C196.269 164.606 196.186 164.689 196.186 164.792V165.378C196.186 165.481 196.269 165.564 196.372 165.564Z" fill="#3F3D56"/>
<path d="M193.178 165.564H194.403C194.505 165.564 194.589 165.481 194.589 165.378V164.792C194.589 164.689 194.505 164.606 194.403 164.606H193.178C193.075 164.606 192.992 164.689 192.992 164.792V165.378C192.992 165.481 193.075 165.564 193.178 165.564Z" fill="#3F3D56"/>
<path d="M189.984 165.564H191.209C191.311 165.564 191.395 165.481 191.395 165.378V164.792C191.395 164.689 191.311 164.606 191.209 164.606H189.984C189.881 164.606 189.798 164.689 189.798 164.792V165.378C189.798 165.481 189.881 165.564 189.984 165.564Z" fill="#3F3D56"/>
<path d="M237.932 167.161H239.156C239.259 167.161 239.342 167.078 239.342 166.975V166.389C239.342 166.286 239.259 166.203 239.156 166.203H237.932C237.829 166.203 237.745 166.286 237.745 166.389V166.975C237.745 167.078 237.829 167.161 237.932 167.161Z" fill="#3F3D56"/>
<path d="M234.738 167.161H235.962C236.065 167.161 236.148 167.078 236.148 166.975V166.389C236.148 166.286 236.065 166.203 235.962 166.203H234.738C234.635 166.203 234.551 166.286 234.551 166.389V166.975C234.551 167.078 234.635 167.161 234.738 167.161Z" fill="#3F3D56"/>
<path d="M231.544 167.161H232.768C232.871 167.161 232.954 167.078 232.954 166.975V166.389C232.954 166.286 232.871 166.203 232.768 166.203H231.544C231.441 166.203 231.357 166.286 231.357 166.389V166.975C231.357 167.078 231.441 167.161 231.544 167.161Z" fill="#3F3D56"/>
<path d="M228.35 167.161H229.574C229.677 167.161 229.76 167.078 229.76 166.975V166.389C229.76 166.286 229.677 166.203 229.574 166.203H228.35C228.247 166.203 228.163 166.286 228.163 166.389V166.975C228.163 167.078 228.247 167.161 228.35 167.161Z" fill="#3F3D56"/>
<path d="M225.156 167.161H226.38C226.483 167.161 226.566 167.078 226.566 166.975V166.389C226.566 166.286 226.483 166.203 226.38 166.203H225.156C225.053 166.203 224.969 166.286 224.969 166.389V166.975C224.969 167.078 225.053 167.161 225.156 167.161Z" fill="#3F3D56"/>
<path d="M221.962 167.161H223.186C223.289 167.161 223.372 167.078 223.372 166.975V166.389C223.372 166.286 223.289 166.203 223.186 166.203H221.962C221.859 166.203 221.775 166.286 221.775 166.389V166.975C221.775 167.078 221.859 167.161 221.962 167.161Z" fill="#3F3D56"/>
<path d="M218.768 167.161H219.992C220.095 167.161 220.178 167.078 220.178 166.975V166.389C220.178 166.286 220.095 166.203 219.992 166.203H218.768C218.665 166.203 218.581 166.286 218.581 166.389V166.975C218.581 167.078 218.665 167.161 218.768 167.161Z" fill="#3F3D56"/>
<path d="M215.574 167.161H216.798C216.901 167.161 216.984 167.078 216.984 166.975V166.389C216.984 166.286 216.901 166.203 216.798 166.203H215.574C215.471 166.203 215.387 166.286 215.387 166.389V166.975C215.387 167.078 215.471 167.161 215.574 167.161Z" fill="#3F3D56"/>
<path d="M212.38 167.161H213.604C213.707 167.161 213.79 167.078 213.79 166.975V166.389C213.79 166.286 213.707 166.203 213.604 166.203H212.38C212.277 166.203 212.193 166.286 212.193 166.389V166.975C212.193 167.078 212.277 167.161 212.38 167.161Z" fill="#3F3D56"/>
<path d="M209.186 167.161H210.41C210.513 167.161 210.596 167.078 210.596 166.975V166.389C210.596 166.286 210.513 166.203 210.41 166.203H209.186C209.083 166.203 209 166.286 209 166.389V166.975C209 167.078 209.083 167.161 209.186 167.161Z" fill="#3F3D56"/>
<path d="M205.992 167.161H207.216C207.319 167.161 207.402 167.078 207.402 166.975V166.389C207.402 166.286 207.319 166.203 207.216 166.203H205.992C205.889 166.203 205.805 166.286 205.805 166.389V166.975C205.805 167.078 205.889 167.161 205.992 167.161Z" fill="#3F3D56"/>
<path d="M202.798 167.161H204.022C204.125 167.161 204.209 167.078 204.209 166.975V166.389C204.209 166.286 204.125 166.203 204.022 166.203H202.798C202.695 166.203 202.612 166.286 202.612 166.389V166.975C202.612 167.078 202.695 167.161 202.798 167.161Z" fill="#3F3D56"/>
<path d="M199.604 167.161H200.828C200.931 167.161 201.015 167.078 201.015 166.975V166.389C201.015 166.286 200.931 166.203 200.828 166.203H199.604C199.501 166.203 199.418 166.286 199.418 166.389V166.975C199.418 167.078 199.501 167.161 199.604 167.161Z" fill="#3F3D56"/>
<path d="M196.41 167.161H197.634C197.737 167.161 197.821 167.078 197.821 166.975V166.389C197.821 166.286 197.737 166.203 197.634 166.203H196.41C196.307 166.203 196.224 166.286 196.224 166.389V166.975C196.224 167.078 196.307 167.161 196.41 167.161Z" fill="#3F3D56"/>
<path d="M193.216 167.161H194.44C194.543 167.161 194.627 167.078 194.627 166.975V166.389C194.627 166.286 194.543 166.203 194.44 166.203H193.216C193.113 166.203 193.03 166.286 193.03 166.389V166.975C193.03 167.078 193.113 167.161 193.216 167.161Z" fill="#3F3D56"/>
<path d="M190.022 167.161H191.246C191.349 167.161 191.433 167.078 191.433 166.975V166.389C191.433 166.286 191.349 166.203 191.246 166.203H190.022C189.919 166.203 189.836 166.286 189.836 166.389V166.975C189.836 167.078 189.919 167.161 190.022 167.161Z" fill="#3F3D56"/>
<path d="M211.421 169.077H223.825C223.928 169.077 224.011 168.994 224.011 168.891V168.305C224.011 168.203 223.928 168.119 223.825 168.119H211.421C211.319 168.119 211.235 168.203 211.235 168.305V168.891C211.235 168.994 211.319 169.077 211.421 169.077Z" fill="#3F3D56"/>
<path d="M198.28 136.78H197.196C196.867 136.78 196.601 137.046 196.601 137.375C196.601 137.704 196.867 137.97 197.196 137.97H198.28C198.609 137.97 198.875 137.704 198.875 137.375C198.875 137.046 198.609 136.78 198.28 136.78Z" fill="white"/>
<path d="M210.681 136.78H209.596C209.268 136.78 209.001 137.046 209.001 137.375C209.001 137.704 209.268 137.97 209.596 137.97H210.681C211.009 137.97 211.276 137.704 211.276 137.375C211.276 137.046 211.009 136.78 210.681 136.78Z" fill="white"/>
<path d="M214.194 136.78H213.11C212.781 136.78 212.515 137.046 212.515 137.375C212.515 137.704 212.781 137.97 213.11 137.97H214.194C214.523 137.97 214.789 137.704 214.789 137.375C214.789 137.046 214.523 136.78 214.194 136.78Z" fill="white"/>
<path d="M207.308 136.681H200.569C200.24 136.681 199.974 136.947 199.974 137.276C199.974 137.605 200.24 137.871 200.569 137.871H207.308C207.636 137.871 207.903 137.605 207.903 137.276C207.903 136.947 207.636 136.681 207.308 136.681Z" fill="white"/>
<path d="M223.841 136.681H217.103C216.774 136.681 216.508 136.947 216.508 137.276C216.508 137.605 216.774 137.871 217.103 137.871H223.841C224.17 137.871 224.437 137.605 224.437 137.276C224.437 136.947 224.17 136.681 223.841 136.681Z" fill="white"/>
<path d="M201.587 139.467H200.503C200.174 139.467 199.907 139.733 199.907 140.062C199.907 140.391 200.174 140.657 200.503 140.657H201.587C201.916 140.657 202.182 140.391 202.182 140.062C202.182 139.733 201.916 139.467 201.587 139.467Z" fill="white"/>
<path d="M213.987 139.467H212.903C212.574 139.467 212.308 139.733 212.308 140.062C212.308 140.391 212.574 140.657 212.903 140.657H213.987C214.316 140.657 214.583 140.391 214.583 140.062C214.583 139.733 214.316 139.467 213.987 139.467Z" fill="white"/>
<path d="M217.501 139.467H216.417C216.088 139.467 215.821 139.733 215.821 140.062C215.821 140.391 216.088 140.657 216.417 140.657H217.501C217.829 140.657 218.096 140.391 218.096 140.062C218.096 139.733 217.829 139.467 217.501 139.467Z" fill="white"/>
<path d="M210.614 139.367H203.876C203.547 139.367 203.28 139.634 203.28 139.963C203.28 140.291 203.547 140.558 203.876 140.558H210.614C210.943 140.558 211.21 140.291 211.21 139.963C211.21 139.634 210.943 139.367 210.614 139.367Z" fill="white"/>
<path d="M227.148 139.367H220.409C220.081 139.367 219.814 139.634 219.814 139.963C219.814 140.291 220.081 140.558 220.409 140.558H227.148C227.477 140.558 227.743 140.291 227.743 139.963C227.743 139.634 227.477 139.367 227.148 139.367Z" fill="white"/>
<path d="M204.894 142.153H203.809C203.481 142.153 203.214 142.42 203.214 142.749C203.214 143.077 203.481 143.344 203.809 143.344H204.894C205.222 143.344 205.489 143.077 205.489 142.749C205.489 142.42 205.222 142.153 204.894 142.153Z" fill="white"/>
<path d="M217.294 142.153H216.21C215.881 142.153 215.615 142.42 215.615 142.749C215.615 143.077 215.881 143.344 216.21 143.344H217.294C217.623 143.344 217.889 143.077 217.889 142.749C217.889 142.42 217.623 142.153 217.294 142.153Z" fill="white"/>
<path d="M220.808 142.153H219.723C219.395 142.153 219.128 142.42 219.128 142.749C219.128 143.077 219.395 143.344 219.723 143.344H220.808C221.136 143.344 221.403 143.077 221.403 142.749C221.403 142.42 221.136 142.153 220.808 142.153Z" fill="white"/>
<path d="M213.921 142.054H207.182C206.854 142.054 206.587 142.321 206.587 142.649C206.587 142.978 206.854 143.245 207.182 143.245H213.921C214.25 143.245 214.516 142.978 214.516 142.649C214.516 142.321 214.25 142.054 213.921 142.054Z" fill="white"/>
<path d="M230.455 142.054H223.716C223.388 142.054 223.121 142.321 223.121 142.649C223.121 142.978 223.388 143.245 223.716 143.245H230.455C230.784 143.245 231.05 142.978 231.05 142.649C231.05 142.321 230.784 142.054 230.455 142.054Z" fill="white"/>
<path d="M208.2 144.84H207.116C206.787 144.84 206.521 145.107 206.521 145.435C206.521 145.764 206.787 146.031 207.116 146.031H208.2C208.529 146.031 208.796 145.764 208.796 145.435C208.796 145.107 208.529 144.84 208.2 144.84Z" fill="white"/>
<path d="M220.601 144.84H219.517C219.188 144.84 218.921 145.107 218.921 145.435C218.921 145.764 219.188 146.031 219.517 146.031H220.601C220.93 146.031 221.196 145.764 221.196 145.435C221.196 145.107 220.93 144.84 220.601 144.84Z" fill="white"/>
<path d="M224.114 144.84H223.03C222.701 144.84 222.435 145.107 222.435 145.435C222.435 145.764 222.701 146.031 223.03 146.031H224.114C224.443 146.031 224.71 145.764 224.71 145.435C224.71 145.107 224.443 144.84 224.114 144.84Z" fill="white"/>
<path d="M217.228 144.741H210.489C210.16 144.741 209.894 145.007 209.894 145.336C209.894 145.665 210.16 145.931 210.489 145.931H217.228C217.557 145.931 217.823 145.665 217.823 145.336C217.823 145.007 217.557 144.741 217.228 144.741Z" fill="white"/>
<path d="M210.681 155.524H209.596C209.268 155.524 209.001 155.79 209.001 156.119C209.001 156.448 209.268 156.714 209.596 156.714H210.681C211.009 156.714 211.276 156.448 211.276 156.119C211.276 155.79 211.009 155.524 210.681 155.524Z" fill="white"/>
<path d="M214.194 155.524H213.11C212.781 155.524 212.515 155.79 212.515 156.119C212.515 156.448 212.781 156.714 213.11 156.714H214.194C214.523 156.714 214.789 156.448 214.789 156.119C214.789 155.79 214.523 155.524 214.194 155.524Z" fill="white"/>
<path d="M223.841 155.623H217.103C216.774 155.623 216.508 155.89 216.508 156.218C216.508 156.547 216.774 156.813 217.103 156.813H223.841C224.17 156.813 224.437 156.547 224.437 156.218C224.437 155.89 224.17 155.623 223.841 155.623Z" fill="white"/>
<path d="M198.28 155.524H197.196C196.867 155.524 196.601 155.79 196.601 156.119C196.601 156.448 196.867 156.714 197.196 156.714H198.28C198.609 156.714 198.875 156.448 198.875 156.119C198.875 155.79 198.609 155.524 198.28 155.524Z" fill="white"/>
<path d="M207.308 155.623H200.569C200.24 155.623 199.974 155.89 199.974 156.218C199.974 156.547 200.24 156.813 200.569 156.813H207.308C207.636 156.813 207.903 156.547 207.903 156.218C207.903 155.89 207.636 155.623 207.308 155.623Z" fill="white"/>
<path d="M201.587 152.837H200.503C200.174 152.837 199.907 153.104 199.907 153.432C199.907 153.761 200.174 154.028 200.503 154.028H201.587C201.916 154.028 202.182 153.761 202.182 153.432C202.182 153.104 201.916 152.837 201.587 152.837Z" fill="white"/>
<path d="M213.987 152.837H212.903C212.574 152.837 212.308 153.104 212.308 153.432C212.308 153.761 212.574 154.028 212.903 154.028H213.987C214.316 154.028 214.583 153.761 214.583 153.432C214.583 153.104 214.316 152.837 213.987 152.837Z" fill="white"/>
<path d="M217.501 152.837H216.417C216.088 152.837 215.821 153.104 215.821 153.432C215.821 153.761 216.088 154.028 216.417 154.028H217.501C217.829 154.028 218.096 153.761 218.096 153.432C218.096 153.104 217.829 152.837 217.501 152.837Z" fill="white"/>
<path d="M210.614 152.936H203.876C203.547 152.936 203.28 153.203 203.28 153.532C203.28 153.86 203.547 154.127 203.876 154.127H210.614C210.943 154.127 211.21 153.86 211.21 153.532C211.21 153.203 210.943 152.936 210.614 152.936Z" fill="white"/>
<path d="M204.894 150.15H203.809C203.481 150.15 203.214 150.417 203.214 150.746C203.214 151.074 203.481 151.341 203.809 151.341H204.894C205.222 151.341 205.489 151.074 205.489 150.746C205.489 150.417 205.222 150.15 204.894 150.15Z" fill="white"/>
<path d="M217.294 150.15H216.21C215.881 150.15 215.615 150.417 215.615 150.746C215.615 151.074 215.881 151.341 216.21 151.341H217.294C217.623 151.341 217.889 151.074 217.889 150.746C217.889 150.417 217.623 150.15 217.294 150.15Z" fill="white"/>
<path d="M220.808 150.15H219.723C219.395 150.15 219.128 150.417 219.128 150.746C219.128 151.074 219.395 151.341 219.723 151.341H220.808C221.136 151.341 221.403 151.074 221.403 150.746C221.403 150.417 221.136 150.15 220.808 150.15Z" fill="white"/>
<path d="M213.921 150.25H207.182C206.854 150.25 206.587 150.516 206.587 150.845C206.587 151.173 206.854 151.44 207.182 151.44H213.921C214.25 151.44 214.516 151.173 214.516 150.845C214.516 150.516 214.25 150.25 213.921 150.25Z" fill="white"/>
<path d="M208.2 147.464H207.116C206.787 147.464 206.521 147.73 206.521 148.059C206.521 148.388 206.787 148.654 207.116 148.654H208.2C208.529 148.654 208.796 148.388 208.796 148.059C208.796 147.73 208.529 147.464 208.2 147.464Z" fill="white"/>
<path d="M220.601 147.464H219.517C219.188 147.464 218.921 147.73 218.921 148.059C218.921 148.388 219.188 148.654 219.517 148.654H220.601C220.93 148.654 221.196 148.388 221.196 148.059C221.196 147.73 220.93 147.464 220.601 147.464Z" fill="white"/>
<path d="M224.114 147.464H223.03C222.701 147.464 222.435 147.73 222.435 148.059C222.435 148.388 222.701 148.654 223.03 148.654H224.114C224.443 148.654 224.71 148.388 224.71 148.059C224.71 147.73 224.443 147.464 224.114 147.464Z" fill="white"/>
<path d="M217.228 147.563H210.489C210.16 147.563 209.894 147.829 209.894 148.158C209.894 148.487 210.16 148.753 210.489 148.753H217.228C217.557 148.753 217.823 148.487 217.823 148.158C217.823 147.829 217.557 147.563 217.228 147.563Z" fill="white"/>
<path d="M192.516 187.012L187.426 178.966L203.402 166.23L209.997 158.924C210.853 157.975 211.944 157.267 213.16 156.872C214.376 156.476 215.674 156.407 216.926 156.671C218.177 156.934 219.337 157.521 220.29 158.374C221.243 159.226 221.956 160.314 222.357 161.528C222.951 163.327 222.824 165.286 222 166.993C221.177 168.7 219.723 170.02 217.945 170.675L207.518 174.517L192.516 187.012Z" fill="#FFB6B6"/>
<path d="M73.0879 128.675V167.779H100.483V128.675C100.483 128.394 100.394 128.12 100.227 127.894C100.06 127.667 99.8251 127.5 99.5564 127.417C99.4298 127.375 99.2971 127.355 99.1637 127.356H74.4109C74.2374 127.356 74.0655 127.39 73.9051 127.456C73.7447 127.522 73.5988 127.619 73.476 127.741C73.3531 127.864 73.2556 128.009 73.189 128.17C73.1224 128.33 73.088 128.502 73.0879 128.675ZM83.779 142.112C83.7862 141.341 84.0974 140.604 84.6451 140.061C85.1927 139.519 85.9325 139.214 86.7034 139.214C87.4744 139.214 88.2141 139.519 88.7618 140.061C89.3094 140.604 89.6207 141.341 89.6279 142.112V146.649C89.6239 147.422 89.3141 148.162 88.7661 148.707C88.218 149.252 87.4765 149.558 86.7034 149.558C85.9304 149.558 85.1888 149.252 84.6408 148.707C84.0928 148.162 83.7829 147.422 83.779 146.649V142.112Z" fill="#2F2E41"/>
<path d="M73.004 166.529V170.3C73.0046 170.495 73.0822 170.682 73.22 170.821C73.3577 170.959 73.5445 171.038 73.7399 171.039H99.831C100.027 171.038 100.214 170.96 100.352 170.822C100.489 170.683 100.567 170.495 100.567 170.3V166.529H73.004Z" fill="#3F3D56"/>
<path d="M29.9916 69.7596V141.158C29.9923 142.068 30.3541 142.941 30.9974 143.584C31.6408 144.227 32.5132 144.589 33.4231 144.59H139.229C140.139 144.589 141.011 144.227 141.654 143.584C142.298 142.941 142.66 142.068 142.66 141.158V69.7596C142.658 68.8505 142.296 67.9794 141.653 67.3369C141.009 66.6944 140.138 66.3331 139.229 66.3319H33.4231C32.514 66.3331 31.6424 66.6945 30.9993 67.3369C30.3561 67.9794 29.9937 68.8505 29.9916 69.7596Z" fill="#3F3D56"/>
<path d="M32.4738 70.648V140.278C32.4746 140.764 32.6681 141.23 33.0118 141.573C33.3556 141.917 33.8216 142.111 34.3077 142.112H138.348C138.834 142.111 139.3 141.917 139.644 141.573C139.988 141.23 140.181 140.764 140.182 140.278V70.648C140.182 70.1612 139.989 69.6944 139.645 69.3499C139.301 69.0053 138.835 68.8112 138.348 68.8102H34.3077C33.821 68.8112 33.3545 69.0053 33.0107 69.3499C32.6669 69.6944 32.4738 70.1612 32.4738 70.648Z" fill="white"/>
<path d="M51.7818 170.784C51.8877 170.917 52.0223 171.024 52.1755 171.097C52.3288 171.17 52.4966 171.208 52.6664 171.207H114.564C114.733 171.207 114.9 171.169 115.053 171.096C115.206 171.023 115.34 170.917 115.447 170.786C115.553 170.654 115.629 170.501 115.669 170.336C115.709 170.172 115.712 170 115.677 169.835L114.716 165.271C114.676 165.085 114.591 164.911 114.467 164.767C114.343 164.622 114.185 164.511 114.007 164.443C113.878 164.393 113.741 164.367 113.603 164.367H53.6234C53.4851 164.367 53.348 164.393 53.2193 164.443C53.0414 164.511 52.8834 164.622 52.7595 164.767C52.6356 164.911 52.5499 165.085 52.5101 165.271L51.5493 169.835C51.5151 170 51.5182 170.171 51.5584 170.336C51.5987 170.5 51.675 170.653 51.7818 170.784Z" fill="#2F2E41"/>
<path d="M134.972 78.402H37.6215C37.5203 78.3998 37.424 78.358 37.3532 78.2856C37.2825 78.2133 37.2429 78.1161 37.2429 78.0149C37.2429 77.9137 37.2825 77.8165 37.3532 77.7441C37.424 77.6718 37.5203 77.63 37.6215 77.6277H134.972C135.073 77.63 135.169 77.6718 135.24 77.7441C135.311 77.8165 135.35 77.9137 135.35 78.0149C135.35 78.1161 135.311 78.2133 135.24 78.2856C135.169 78.358 135.073 78.3998 134.972 78.402Z" fill="#3F3D56"/>
<path d="M44.2482 75.6511C45.5012 75.6511 46.517 74.6127 46.517 73.3317C46.517 72.0508 45.5012 71.0124 44.2482 71.0124C42.9952 71.0124 41.9794 72.0508 41.9794 73.3317C41.9794 74.6127 42.9952 75.6511 44.2482 75.6511Z" fill="#3F3D56"/>
<path d="M52.0859 75.6511C53.3389 75.6511 54.3547 74.6127 54.3547 73.3317C54.3547 72.0508 53.3389 71.0124 52.0859 71.0124C50.8328 71.0124 49.8171 72.0508 49.8171 73.3317C49.8171 74.6127 50.8328 75.6511 52.0859 75.6511Z" fill="#3F3D56"/>
<path d="M59.9235 75.6511C61.1765 75.6511 62.1923 74.6127 62.1923 73.3317C62.1923 72.0508 61.1765 71.0124 59.9235 71.0124C58.6705 71.0124 57.6547 72.0508 57.6547 73.3317C57.6547 74.6127 58.6705 75.6511 59.9235 75.6511Z" fill="#3F3D56"/>
<path d="M130.252 71.586H124.685C124.575 71.5885 124.471 71.634 124.394 71.7128C124.317 71.7915 124.274 71.8972 124.274 72.0073C124.274 72.1173 124.317 72.2231 124.394 72.3018C124.471 72.3805 124.575 72.426 124.685 72.4286H130.252C130.363 72.427 130.468 72.382 130.546 72.3031C130.624 72.2243 130.667 72.118 130.667 72.0073C130.667 71.8966 130.624 71.7903 130.546 71.7114C130.468 71.6326 130.363 71.5875 130.252 71.586Z" fill="#3F3D56"/>
<path d="M130.252 73.1683H124.685C124.575 73.1707 124.47 73.2162 124.393 73.2949C124.316 73.3737 124.273 73.4794 124.273 73.5896C124.273 73.6997 124.316 73.8055 124.393 73.8843C124.47 73.963 124.575 74.0085 124.685 74.0109H130.252C130.363 74.0096 130.469 73.9646 130.547 73.8857C130.625 73.8069 130.668 73.7005 130.668 73.5896C130.668 73.4787 130.625 73.3723 130.547 73.2935C130.469 73.2146 130.363 73.1696 130.252 73.1683Z" fill="#3F3D56"/>
<path d="M130.252 74.7506H124.685C124.575 74.7531 124.471 74.7987 124.394 74.8774C124.317 74.9561 124.274 75.0618 124.274 75.1719C124.274 75.282 124.317 75.3877 124.394 75.4664C124.471 75.5451 124.575 75.5906 124.685 75.5932H130.252C130.363 75.5916 130.468 75.5466 130.546 75.4677C130.624 75.3889 130.667 75.2826 130.667 75.1719C130.667 75.0612 130.624 74.9549 130.546 74.8761C130.468 74.7972 130.363 74.7521 130.252 74.7506Z" fill="#3F3D56"/>
<path d="M264.455 168.184C264.623 168.673 264.942 169.096 265.366 169.393C265.789 169.69 266.296 169.844 266.813 169.835L276.914 169.575C277.435 169.565 277.938 169.387 278.349 169.067C278.76 168.747 279.057 168.302 279.194 167.8L280.623 152.515C281.131 152.745 281.683 152.858 282.239 152.847C282.723 152.835 283.199 152.728 283.642 152.531C284.084 152.335 284.483 152.054 284.816 151.703C285.15 151.353 285.411 150.94 285.584 150.488C285.758 150.037 285.842 149.556 285.829 149.072C285.817 148.588 285.71 148.112 285.514 147.67C285.317 147.228 285.036 146.829 284.685 146.495C284.335 146.162 283.922 145.901 283.471 145.727C283.019 145.553 282.538 145.47 282.054 145.482C281.832 145.481 281.61 145.504 281.392 145.551C281.156 145.295 280.868 145.091 280.548 144.953C280.228 144.815 279.883 144.746 279.534 144.749L263.997 145.15C263.868 145.155 263.74 145.171 263.613 145.198C263.273 145.261 262.949 145.397 262.666 145.596C262.382 145.795 262.144 146.052 261.968 146.351C261.792 146.649 261.682 146.982 261.645 147.327C261.608 147.672 261.646 148.02 261.755 148.349L264.455 168.184ZM280.917 151.477L281.934 147.835C282.049 147.414 282.052 146.97 281.941 146.548C281.991 146.548 282.034 146.525 282.084 146.525C282.781 146.51 283.456 146.773 283.96 147.255C284.464 147.737 284.756 148.4 284.772 149.097C284.789 149.795 284.528 150.47 284.047 150.975C283.566 151.481 282.904 151.775 282.207 151.793C281.756 151.807 281.31 151.698 280.917 151.477Z" fill="#372C2E"/>
<path d="M263.613 145.198C263.944 147.091 267.666 148.421 272.141 148.19C276.256 148 279.621 146.555 280.237 144.843C280.009 144.775 279.772 144.744 279.534 144.749L263.997 145.15C263.868 145.155 263.74 145.171 263.613 145.198Z" fill="#3F3D56"/>
<path d="M272.961 159.785C272.982 159.78 273.001 159.771 273.019 159.76L275.212 158.324C275.239 158.306 275.261 158.283 275.276 158.255C275.291 158.227 275.299 158.196 275.299 158.164C275.299 158.133 275.291 158.102 275.276 158.074C275.261 158.046 275.239 158.022 275.212 158.005L272.932 156.512C272.912 156.498 272.888 156.488 272.863 156.483C272.839 156.479 272.813 156.479 272.789 156.484C272.764 156.489 272.741 156.499 272.72 156.513C272.699 156.527 272.682 156.545 272.668 156.566C272.654 156.587 272.645 156.61 272.64 156.635C272.635 156.66 272.636 156.685 272.641 156.71C272.646 156.734 272.656 156.758 272.67 156.778C272.684 156.799 272.702 156.817 272.724 156.83L274.76 158.164L272.81 159.441C272.772 159.465 272.745 159.503 272.732 159.546C272.719 159.589 272.722 159.635 272.74 159.677C272.758 159.718 272.79 159.752 272.831 159.771C272.871 159.791 272.917 159.796 272.961 159.785H272.961Z" fill="#DE9E48"/>
<path d="M269.497 159.945C269.533 159.935 269.567 159.915 269.592 159.887C269.617 159.859 269.633 159.823 269.639 159.786C269.644 159.748 269.638 159.71 269.621 159.676C269.604 159.642 269.578 159.613 269.545 159.594L267.523 158.435L269.477 156.984C269.497 156.969 269.514 156.95 269.527 156.928C269.54 156.907 269.548 156.883 269.552 156.858C269.555 156.834 269.554 156.809 269.548 156.784C269.542 156.76 269.531 156.737 269.516 156.717C269.501 156.697 269.483 156.68 269.461 156.667C269.44 156.654 269.416 156.646 269.391 156.642C269.366 156.639 269.341 156.64 269.317 156.646C269.293 156.652 269.27 156.663 269.25 156.678L267.062 158.303C267.036 158.322 267.016 158.347 267.003 158.375C266.989 158.404 266.983 158.436 266.985 158.467C266.987 158.499 266.997 158.529 267.013 158.556C267.03 158.583 267.053 158.606 267.08 158.621L269.355 159.925C269.398 159.95 269.449 159.957 269.497 159.945Z" fill="#DE9E48"/>
<path d="M272.743 161.043C272.761 161.038 272.779 161.031 272.795 161.021C272.817 161.008 272.835 160.991 272.85 160.971C272.865 160.951 272.876 160.928 272.881 160.903C272.887 160.879 272.889 160.854 272.885 160.829C272.881 160.804 272.872 160.78 272.859 160.759L269.75 155.647C269.723 155.604 269.681 155.573 269.632 155.561C269.583 155.549 269.531 155.557 269.488 155.583C269.444 155.61 269.414 155.652 269.402 155.701C269.39 155.75 269.398 155.802 269.424 155.845L272.533 160.958C272.555 160.992 272.586 161.019 272.624 161.035C272.662 161.05 272.704 161.053 272.743 161.043Z" fill="#DE9E48"/>
<path d="M97.9282 99.4486H81.079C80.3917 99.4486 79.8345 100.006 79.8345 100.693V102.339C79.8345 103.027 80.3917 103.584 81.079 103.584H97.9282C98.6155 103.584 99.1728 103.027 99.1728 102.339V100.693C99.1728 100.006 98.6155 99.4486 97.9282 99.4486Z" fill="#DE9E48"/>
<path d="M107.749 107.719H71.2578C70.5704 107.719 70.0132 108.276 70.0132 108.964V110.61C70.0132 111.297 70.5704 111.854 71.2578 111.854H107.749C108.437 111.854 108.994 111.297 108.994 110.61V108.964C108.994 108.276 108.437 107.719 107.749 107.719Z" fill="#E6E6E6"/>
<path d="M107.749 115.99H71.2578C70.5704 115.99 70.0132 116.547 70.0132 117.234V118.88C70.0132 119.568 70.5704 120.125 71.2578 120.125H107.749C108.437 120.125 108.994 119.568 108.994 118.88V117.234C108.994 116.547 108.437 115.99 107.749 115.99Z" fill="#E6E6E6"/>
<path d="M110.843 143.684L110.925 143.945L110.93 143.954L113.418 151.518L116.28 160.234L121.664 176.615L121.717 179.159V179.168L122.117 199.637L121.008 202.412L122.256 206.961C122.256 206.961 121.682 200.084 118.602 204.034C116.858 206.278 114.818 208.575 113.144 210.728C115.584 211.715 118.063 212.608 120.581 213.407C121.125 213.581 121.673 213.746 122.221 213.911C122.339 213.946 122.456 213.981 122.574 214.016C130.922 216.485 139.552 217.872 148.253 218.144C148.706 218.157 149.149 218.165 149.58 218.174C149.732 218.178 149.88 218.183 150.028 218.183C150.515 218.187 150.998 218.191 151.485 218.191C152.468 218.191 153.447 218.177 154.421 218.148C161.632 217.945 168.801 216.975 175.807 215.255C175.76 212.363 175.629 208.983 175.442 205.373C175.355 203.603 173.402 201.685 173.285 199.832C173.202 198.44 174.955 197.131 174.864 195.717C174.272 187.014 173.533 190.355 172.985 184.192C172.928 183.587 172.876 183.009 172.828 182.456C172.476 178.498 172.232 176.023 172.232 176.023L174.572 161.274L178.248 138.117L177.965 137.652L177.647 137.495L158.261 127.9L157.209 125.203C156.902 124.426 156.37 123.759 155.681 123.287C154.992 122.815 154.177 122.56 153.342 122.554L140.572 122.502C139.909 122.499 139.255 122.654 138.664 122.955C138.074 123.255 137.563 123.692 137.175 124.229L133.717 129.018L110.843 143.684Z" fill="#372C2E"/>
<path d="M124.609 172.97L121.717 179.159L119.742 183.387L116.345 201.172L114.644 202.977L113.187 196.587L97.9369 199.973C97.4367 197.194 97.803 200.067 97.4941 197.018C97.5811 196.931 97.6725 196.844 97.7638 196.757C98.0074 196.531 98.2118 196.318 98.2075 196.114C98.0335 185.597 98.5554 167.698 102.914 156.855C103.596 155.084 104.496 153.406 105.593 151.857C105.68 151.74 105.763 151.622 105.845 151.505C107.855 148.691 109.125 145.92 110.926 143.95V143.945C110.937 143.936 110.947 143.926 110.956 143.915C110.963 143.912 110.968 143.907 110.973 143.902L123.343 137.343L123.874 152.253L124.252 162.97L124.609 172.97Z" fill="#3F3D56"/>
<path d="M169.213 174.728L172.826 182.458L174.087 185.15L177.483 202.934L179.178 204.735L180.639 198.346L181.325 198.206L193.701 195.642L197.308 207.098C198.121 205.744 198.441 204.15 198.215 202.587C197.988 201.023 197.229 199.586 196.065 198.518C195.818 198.295 195.613 198.078 195.619 197.872C195.824 185.502 195.068 162.915 188.235 153.619C186.064 150.668 184.762 147.73 182.868 145.677C182.862 145.671 182.862 145.665 182.856 145.665L178.246 138.117L177.964 137.653L177.648 137.495L169.213 174.728Z" fill="#3F3D56"/>
<path d="M147.326 118.868C156.709 118.868 164.315 111.262 164.315 101.879C164.315 92.4958 156.709 84.8894 147.326 84.8894C137.943 84.8894 130.337 92.4958 130.337 101.879C130.337 111.262 137.943 118.868 147.326 118.868Z" fill="#FFB6B6"/>
<path d="M170.289 90.0118C170.157 89.8711 169.998 89.7584 169.822 89.6804C169.646 89.6025 169.456 89.5608 169.263 89.558L169.519 88.8488C169.602 88.6255 169.625 88.3839 169.584 88.149C169.543 87.9141 169.441 87.6942 169.287 87.5118C169.134 87.3295 168.934 87.1912 168.71 87.1113C168.485 87.0313 168.243 87.0125 168.009 87.0568L167.078 87.236L167.166 86.6145C167.2 86.3831 167.173 86.1468 167.087 85.9291C167.002 85.7113 166.861 85.5195 166.679 85.3725C166.497 85.2256 166.28 85.1285 166.049 85.0909C165.819 85.0533 165.582 85.0764 165.363 85.158C165.163 85.2365 164.949 85.2694 164.735 85.2542C164.521 85.239 164.314 85.1762 164.127 85.0703C163.94 84.9677 163.778 84.8255 163.651 84.6536C163.525 84.4817 163.438 84.2843 163.395 84.0752L163.071 82.5119L163.037 82.428C161.458 79.7972 158.423 77.8832 154.71 77.1816C151.404 76.5525 148.014 76.8728 144.747 77.174C143.45 77.296 141.986 77.4332 140.766 78.1806C139.729 78.8211 138.852 80.1022 139.031 81.3948C135.81 80.4073 132.355 82.3785 130.643 84.8644C128.615 87.8232 128.283 91.5292 128.23 94.427C128.085 101.282 129.499 106.891 132.424 111.1C132.637 111.405 132.691 112.042 133.114 112.256L133.026 112.115C133.499 112.351 133.979 112.732 133.8 113.14C133.285 114.315 136.706 116.911 139.115 117.769C143.511 119.336 149.357 119.203 153.467 118.638L153.612 117.666C155.095 117.464 156.14 117.079 156.433 116.476C156.952 116.034 157.394 115.638 157.779 115.272L157.783 115.268C157.79 115.26 157.806 115.249 157.813 115.241C159.67 113.461 160.101 112.446 160.295 110.902C160.482 109.388 160.151 107.852 159.811 106.468C166.956 107.574 156.997 98.8575 163.655 97.1722C163.731 97.1487 163.809 97.1296 163.887 97.115C164.082 97.0693 164.276 97.0235 164.463 96.9701C165.363 96.7257 166.226 96.3574 167.025 95.8759C168.886 94.7435 169.5 93.2412 170.46 91.5483C170.599 91.3073 170.657 91.0283 170.626 90.7519C170.596 90.4756 170.477 90.2163 170.289 90.0118Z" fill="#2F2E41"/>
<path d="M207.414 175.937C207.41 176.605 207.403 177.539 207.372 178.694C207.368 178.854 207.365 179.018 207.361 179.186C207.311 181.31 207.262 183.09 207.182 185.069C207.178 185.206 207.174 185.34 207.166 185.477C207.06 188.237 206.892 191.452 206.602 196.542C206.064 205.944 205.127 197.834 204.185 201.132C204.139 201.296 204.089 201.491 204.044 201.72C203.901 202.55 203.66 203.36 203.327 204.133C202.827 204.431 202.313 204.717 201.806 205.002C200.361 205.807 198.893 206.581 197.413 207.317C196.582 207.729 195.747 208.133 194.908 208.522C194.775 208.583 194.645 208.644 194.515 208.701C190.22 210.688 185.793 212.377 181.266 213.757C180.381 214.024 179.501 214.283 178.608 214.523C177.678 214.782 176.748 215.026 175.806 215.255C168.8 216.975 161.631 217.945 154.42 218.149C153.448 218.18 152.468 218.191 151.484 218.191C150.996 218.191 150.516 218.187 150.028 218.183C149.879 218.183 149.73 218.18 149.581 218.176C149.151 218.164 148.705 218.157 148.255 218.145C139.553 217.874 130.923 216.486 122.575 214.016L122.221 213.913C121.672 213.745 121.126 213.581 120.581 213.406C118.065 212.609 115.585 211.717 113.142 210.729C111.278 209.978 109.435 209.172 107.614 208.312C107.597 208.307 107.582 208.3 107.568 208.289C107.187 208.114 106.802 207.931 106.42 207.744C106.371 207.717 106.317 207.69 106.264 207.664C104.842 206.97 103.435 206.243 102.043 205.483C100.873 202.795 99.2256 202.28 98.2038 199.916C97.9064 199.214 97.6914 198.479 97.5632 197.728C97.5632 197.72 97.5594 197.712 97.5594 197.701C97.6661 199.119 97.1057 195.184 97.5556 197.686C97.5518 197.64 97.548 197.59 97.5441 197.533C97.5327 197.396 97.5175 197.228 97.4946 197.018C96.1868 184.249 96.2707 169.646 95.7026 157.613C95.6644 156.835 95.625 156.09 95.5844 155.379C95.5729 155.142 95.5577 154.91 95.5424 154.681C95.5691 154.612 95.5996 154.54 95.6339 154.471C95.6412 154.451 95.6502 154.432 95.6606 154.414C95.6719 154.39 95.6846 154.367 95.6987 154.345C95.7064 154.334 95.7178 154.319 95.7254 154.307C95.731 154.294 95.7374 154.281 95.7445 154.269C95.7788 154.216 95.8169 154.159 95.8589 154.105C95.8779 154.082 95.8932 154.063 95.9123 154.044C95.9254 154.025 95.9408 154.007 95.958 153.991C95.9697 153.972 95.9838 153.956 96 153.941C96.0152 153.926 96.0305 153.907 96.0495 153.888C96.0577 153.876 96.068 153.866 96.08 153.857C96.1102 153.823 96.1434 153.791 96.1792 153.762C96.3152 153.637 96.4605 153.522 96.6138 153.419C96.6672 153.385 96.7244 153.35 96.7778 153.312C97.162 153.082 97.5666 152.888 97.9864 152.733C98.1313 152.679 98.2762 152.63 98.4325 152.576C98.4897 152.561 98.5431 152.542 98.6003 152.523C98.6842 152.496 98.7681 152.469 98.8558 152.45C99.2904 152.321 99.7594 152.21 100.266 152.107C100.327 152.096 100.392 152.084 100.457 152.069C100.549 152.05 100.644 152.035 100.739 152.02C100.869 151.997 101.002 151.974 101.136 151.951C102.268 151.772 103.553 151.638 104.972 151.551C105.105 151.543 105.238 151.535 105.372 151.528C105.528 151.52 105.685 151.512 105.845 151.505C105.978 151.497 106.115 151.493 106.253 151.49C106.386 151.482 106.523 151.478 106.664 151.474C107.049 151.463 107.446 151.451 107.85 151.444C109.002 151.421 110.214 151.429 111.488 151.455C112.079 151.471 112.681 151.486 113.299 151.512C113.341 151.512 113.379 151.516 113.417 151.516C113.955 151.535 114.496 151.558 115.053 151.589C115.441 151.608 115.834 151.627 116.227 151.65C116.597 151.673 116.97 151.696 117.348 151.722C117.641 151.737 117.935 151.76 118.232 151.779C118.484 151.798 118.736 151.818 118.987 151.833L119.331 151.856C119.517 151.871 119.704 151.882 119.895 151.901C120.314 151.936 120.734 151.97 121.161 152.004C121.584 152.042 122.015 152.081 122.446 152.119C122.876 152.157 123.311 152.199 123.746 152.241C123.792 152.245 123.834 152.248 123.875 152.252C124.272 152.294 124.669 152.332 125.069 152.374C125.16 152.382 125.256 152.389 125.347 152.401C125.729 152.439 126.118 152.484 126.503 152.525C126.621 152.538 126.739 152.55 126.858 152.563C127.159 152.596 127.457 152.624 127.761 152.66C128.161 152.706 128.569 152.748 128.966 152.801C129.274 152.836 129.583 152.87 129.892 152.908C130.376 152.965 130.868 153.026 131.36 153.091C131.547 153.114 131.734 153.137 131.92 153.163C133.324 153.339 134.742 153.533 136.183 153.735C138.368 154.044 140.587 154.38 142.821 154.742C145.059 155.104 147.31 155.487 149.574 155.89C150.146 155.993 150.718 156.095 151.293 156.202C151.553 156.252 151.812 156.301 152.071 156.351C152.513 156.431 152.956 156.515 153.398 156.599C153.84 156.683 154.283 156.767 154.725 156.854C155.251 156.957 155.781 157.06 156.307 157.163C159.773 157.849 163.22 158.581 166.583 159.348C167.136 159.474 167.688 159.603 168.238 159.729C169.336 159.985 170.424 160.244 171.501 160.507C171.799 160.576 172.092 160.648 172.386 160.72C173.118 160.903 173.85 161.086 174.571 161.273L174.696 161.308C175.226 161.437 175.745 161.571 176.263 161.708C177.487 162.028 178.691 162.352 179.874 162.68C180.66 162.898 181.436 163.117 182.204 163.34C183.352 163.672 184.476 164.007 185.571 164.346C185.841 164.43 186.112 164.514 186.379 164.594C187.18 164.842 187.969 165.094 188.735 165.345C189.345 165.544 189.94 165.746 190.527 165.948C191.114 166.15 191.69 166.352 192.254 166.554C192.617 166.684 192.975 166.821 193.333 166.951C193.848 167.141 194.355 167.332 194.851 167.522C195.003 167.58 195.152 167.641 195.301 167.698C195.396 167.74 195.488 167.774 195.579 167.812C195.758 167.885 195.941 167.953 196.117 168.026C196.296 168.094 196.471 168.167 196.647 168.243C196.818 168.312 196.994 168.384 197.162 168.457C197.333 168.525 197.501 168.598 197.669 168.674C197.81 168.731 197.947 168.792 198.08 168.853C198.351 168.971 198.622 169.09 198.885 169.212C199.015 169.273 199.144 169.33 199.274 169.391L199.571 169.528C199.613 169.551 199.655 169.57 199.697 169.589C199.792 169.635 199.892 169.684 199.987 169.73C200.208 169.833 200.425 169.944 200.639 170.047C200.925 170.191 201.203 170.336 201.47 170.477C201.741 170.622 202.004 170.767 202.255 170.908C202.297 170.931 202.336 170.954 202.377 170.977C202.435 171.007 202.492 171.042 202.549 171.072C202.744 171.183 202.93 171.297 203.117 171.408C203.483 171.633 203.83 171.854 204.154 172.075C204.227 172.125 204.295 172.174 204.368 172.22C204.608 172.391 204.837 172.559 205.05 172.731C205.05 172.735 205.05 172.735 205.054 172.735C205.127 172.788 205.195 172.845 205.264 172.899C205.321 172.952 205.382 172.998 205.439 173.051C205.637 173.223 205.82 173.387 205.988 173.554C206.044 173.606 206.098 173.661 206.148 173.718C206.171 173.737 206.191 173.757 206.209 173.779C206.286 173.856 206.354 173.932 206.419 174.008C206.429 174.019 206.438 174.03 206.446 174.042C206.537 174.149 206.621 174.256 206.701 174.363C206.739 174.416 206.781 174.469 206.816 174.523C206.861 174.588 206.907 174.656 206.945 174.721C206.98 174.774 207.01 174.832 207.041 174.885C207.121 175.022 207.19 175.167 207.246 175.316C207.289 175.417 207.324 175.522 207.349 175.628C207.378 175.73 207.4 175.833 207.414 175.937Z" fill="#372C2E"/>
<path opacity="0.2" d="M207.414 175.937C207.41 176.605 207.403 177.539 207.372 178.694C207.368 178.854 207.361 179.018 207.357 179.186C207.319 180.806 207.262 182.808 207.182 185.069C207.178 185.206 207.174 185.34 207.166 185.477C207.06 188.238 206.892 191.452 206.602 196.542C206.064 205.944 205.127 197.834 204.185 201.132C201.569 199.523 198.702 197.838 195.636 196.107C195.084 195.795 194.526 195.481 193.963 195.165C187.832 191.745 180.984 188.161 173.835 184.612C173.553 184.47 173.267 184.329 172.985 184.192C156.608 176.097 138.734 168.224 124.253 162.97C121.458 161.956 118.789 161.041 116.28 160.236C110.996 158.547 106.428 157.365 102.913 156.854C99.2523 156.32 96.7244 156.511 95.7025 157.613C95.6644 156.835 95.625 156.09 95.5843 155.379C95.5691 155.142 95.5538 154.91 95.5386 154.681C95.5621 154.618 95.5927 154.558 95.6223 154.498C95.6265 154.489 95.6295 154.48 95.6339 154.471C95.6412 154.451 95.6501 154.432 95.6606 154.414C95.6718 154.39 95.6846 154.367 95.6987 154.345C95.7111 154.318 95.7265 154.293 95.7445 154.269C95.7788 154.216 95.8169 154.159 95.8588 154.105C95.8897 154.065 95.9228 154.027 95.958 153.991C95.9697 153.972 95.9838 153.956 95.9999 153.941C96.0152 153.926 96.0304 153.907 96.0495 153.888C96.0576 153.876 96.068 153.865 96.08 153.857C96.1102 153.823 96.1433 153.791 96.1791 153.762C96.3152 153.637 96.4605 153.522 96.6138 153.419C96.6672 153.385 96.7244 153.35 96.7777 153.312C97.162 153.082 97.5666 152.888 97.9864 152.733C98.1313 152.679 98.2762 152.63 98.4325 152.576C98.4897 152.561 98.5431 152.542 98.6003 152.523C98.6841 152.496 98.768 152.469 98.8557 152.45C99.2904 152.321 99.7594 152.21 100.266 152.107C100.419 152.077 100.579 152.046 100.739 152.02C100.869 151.997 101.002 151.974 101.136 151.951C102.268 151.772 103.553 151.638 104.971 151.551C105.105 151.543 105.238 151.535 105.372 151.528C105.528 151.52 105.684 151.512 105.845 151.505C105.978 151.497 106.115 151.493 106.253 151.49C106.386 151.482 106.523 151.478 106.664 151.474C107.049 151.463 107.446 151.451 107.85 151.444C109.002 151.425 110.214 151.432 111.488 151.459C112.079 151.471 112.681 151.49 113.299 151.516C113.337 151.516 113.379 151.52 113.417 151.52C113.954 151.535 114.5 151.562 115.053 151.589C115.441 151.608 115.834 151.627 116.227 151.65C116.597 151.673 116.97 151.695 117.348 151.722C117.641 151.737 117.935 151.76 118.232 151.779C118.484 151.798 118.736 151.817 118.987 151.833C119.289 151.856 119.59 151.878 119.895 151.901C120.314 151.936 120.734 151.97 121.161 152.004C121.584 152.042 122.015 152.081 122.446 152.119C122.876 152.157 123.311 152.199 123.746 152.241C123.792 152.244 123.833 152.248 123.875 152.252C124.272 152.294 124.668 152.332 125.069 152.374C127.288 152.599 129.572 152.862 131.92 153.163C133.324 153.343 134.744 153.534 136.183 153.739C138.368 154.048 140.587 154.383 142.821 154.742C145.059 155.104 147.31 155.487 149.574 155.89C150.146 155.992 150.718 156.095 151.293 156.202C151.995 156.332 152.696 156.464 153.398 156.599C153.84 156.683 154.283 156.767 154.725 156.854C155.251 156.957 155.781 157.06 156.307 157.163C159.773 157.849 163.22 158.581 166.583 159.348C167.136 159.474 167.688 159.603 168.238 159.729C169.336 159.985 170.424 160.244 171.501 160.507C171.799 160.579 172.092 160.652 172.386 160.724C173.122 160.907 173.85 161.09 174.571 161.273V161.277C174.613 161.285 174.654 161.296 174.696 161.308C175.223 161.441 175.745 161.574 176.264 161.712C177.487 162.032 178.691 162.355 179.874 162.68C180.66 162.901 181.438 163.119 182.204 163.34C183.352 163.675 184.476 164.011 185.571 164.346C185.841 164.43 186.112 164.514 186.379 164.594C187.18 164.846 187.965 165.096 188.735 165.345C189.345 165.544 189.94 165.746 190.527 165.948C191.114 166.15 191.69 166.352 192.254 166.554C192.62 166.684 192.979 166.817 193.333 166.947C193.852 167.137 194.355 167.328 194.851 167.522C195.003 167.58 195.152 167.641 195.301 167.698C195.579 167.805 195.85 167.915 196.117 168.026C196.296 168.094 196.471 168.167 196.647 168.243C196.818 168.312 196.994 168.384 197.162 168.457C197.333 168.525 197.501 168.598 197.669 168.674C197.81 168.731 197.947 168.792 198.08 168.853C198.351 168.971 198.622 169.09 198.885 169.212C199.015 169.273 199.144 169.33 199.274 169.391L199.571 169.528C199.613 169.551 199.655 169.57 199.697 169.589C200.021 169.742 200.334 169.894 200.639 170.047C200.925 170.191 201.203 170.336 201.47 170.477C201.787 170.645 202.088 170.809 202.377 170.977C202.435 171.007 202.492 171.042 202.549 171.072C202.744 171.183 202.93 171.297 203.117 171.408C203.483 171.633 203.83 171.854 204.154 172.075C204.475 172.296 204.772 172.513 205.05 172.731C205.05 172.735 205.05 172.735 205.054 172.735C205.188 172.841 205.317 172.948 205.439 173.051C205.637 173.223 205.82 173.387 205.988 173.554C206.044 173.606 206.098 173.661 206.148 173.718C206.171 173.737 206.191 173.757 206.209 173.779C206.289 173.867 206.37 173.955 206.446 174.042C206.537 174.149 206.621 174.256 206.701 174.363C206.739 174.416 206.781 174.469 206.816 174.523C206.861 174.588 206.907 174.656 206.945 174.721C206.98 174.774 207.01 174.832 207.041 174.885C207.122 175.022 207.19 175.167 207.246 175.316C207.288 175.417 207.323 175.522 207.349 175.628C207.378 175.73 207.4 175.833 207.414 175.937Z" fill="black"/>
</g>
<defs>
<clipPath id="clip0_12_60">
<rect width="300" height="218.191" fill="white"/>
</clipPath>
</defs>
</svg>
