<svg width="300" height="197" viewBox="0 0 300 197" fill="none" xmlns="http://www.w3.org/2000/svg">
<g clip-path="url(#clip0_13_207)">
<path d="M148.458 33.3917C153.484 33.3917 157.558 29.3171 157.558 24.2908C157.558 19.2646 153.484 15.19 148.458 15.19C143.431 15.19 139.357 19.2646 139.357 24.2908C139.357 29.3171 143.431 33.3917 148.458 33.3917Z" fill="#FD6584"/>
<path d="M168.826 19.9814C168.569 19.1399 168.072 18.3917 167.396 17.8291C166.719 17.2665 165.893 16.914 165.019 16.815C164.998 16.8133 164.978 16.8133 164.957 16.815C164.933 16.8073 164.908 16.8016 164.882 16.7979C161.835 16.4025 158.447 17.3637 156.167 19.4565C155.32 20.2212 154.643 21.1547 154.18 22.1969C153.757 21.6196 153.2 21.1539 152.557 20.8403C151.914 20.5268 151.204 20.3747 150.488 20.3973C149.566 20.4582 148.685 20.8022 147.965 21.3823C147.245 21.9624 146.722 22.7503 146.466 23.6387C146.438 23.7473 146.446 23.862 146.488 23.9658C146.531 24.0696 146.606 24.1569 146.702 24.2148C146.976 24.4492 147.302 24.6151 147.653 24.6988C148.406 24.859 149.166 25.0055 149.926 25.1384C151.412 25.3975 152.906 25.6077 154.408 25.769C155.4 25.8747 156.394 25.9588 157.391 26.0212C159.449 26.1508 161.518 26.1814 163.58 26.1167C164.603 26.0826 165.585 26.0485 166.518 25.5986C167.199 25.2639 167.781 24.7576 168.206 24.1295C168.606 23.5254 168.869 22.841 168.976 22.1243C169.083 21.4076 169.032 20.6762 168.826 19.9814Z" fill="#E6E6E6"/>
<path d="M150.103 33.2404C150.086 32.859 150.022 32.4813 149.912 32.1156C149.655 31.2741 149.157 30.5262 148.48 29.9637C147.803 29.4012 146.976 29.0486 146.102 28.9491C146.082 28.9474 146.063 28.9474 146.044 28.9491C146.018 28.9418 145.992 28.9361 145.965 28.9321C144.279 28.7255 142.568 28.9014 140.958 29.4468C138.484 30.275 136.313 31.9452 135.266 34.3311C134.843 33.7534 134.285 33.2875 133.642 32.9739C132.998 32.6603 132.287 32.5084 131.571 32.5314C130.649 32.5924 129.768 32.9364 129.048 33.5165C128.328 34.0965 127.805 34.8845 127.549 35.7729C127.523 35.8814 127.531 35.9956 127.574 36.099C127.616 36.2025 127.69 36.2899 127.785 36.3489C128.059 36.5827 128.385 36.7485 128.736 36.8329C129.492 36.9931 130.249 37.1397 131.012 37.2726C132.499 37.5317 133.991 37.7418 135.491 37.9032C138.538 38.2303 141.604 38.3464 144.667 38.2508C145.686 38.2167 146.671 38.1827 147.605 37.7328C148.284 37.3979 148.865 36.8916 149.289 36.2637C149.886 35.3733 150.173 34.3104 150.103 33.2404Z" fill="#E6E6E6"/>
<path d="M268.633 143.671C268.763 149.876 267.907 156.063 266.096 161.999C266.032 162.215 265.956 162.43 265.88 162.646H228.539C229.072 160.017 229.92 157.462 231.063 155.036C234.17 148.44 239.244 142.796 244.254 137.189C251.154 129.465 257.889 121.804 258.955 111.758C261.69 115.928 263.873 120.434 265.449 125.165C263.519 125.88 261.748 126.966 260.236 128.361C259.817 128.755 259.373 129.325 259.589 129.871C259.792 130.327 260.35 130.48 260.845 130.581C262.037 130.809 263.229 131.038 264.422 131.253C265.36 131.444 266.311 131.621 267.263 131.799C268.099 135.703 268.558 139.679 268.633 143.671Z" fill="#F2F2F2"/>
<path d="M300 139.561C294.013 143.202 290.208 148.833 287.1 155.137C284.396 155.754 281.9 157.065 279.858 158.942C279.427 159.336 278.983 159.906 279.211 160.452C279.401 160.908 279.972 161.061 280.467 161.162C281.646 161.39 282.851 161.619 284.031 161.834C283.917 162.101 283.803 162.38 283.688 162.646H244.115C245.911 160.223 247.9 157.95 250.063 155.848C250.533 155.378 251.015 154.934 251.509 154.478C256.554 149.919 262.346 146.263 268.633 143.671C278.536 139.531 289.365 138.112 300 139.561Z" fill="#F2F2F2"/>
<path d="M250.71 162.646H215.474C215.282 159.825 215.299 156.992 215.525 154.173C216.933 136.758 226.408 120.168 240.703 110.122C238.876 116.629 239.815 123.098 241.717 129.592C241.451 129.681 241.185 129.757 240.944 129.858C239.014 130.573 237.243 131.659 235.731 133.055C235.312 133.448 234.868 134.019 235.084 134.564C235.274 135.021 235.845 135.173 236.339 135.274C237.532 135.503 238.724 135.731 239.904 135.946C240.855 136.137 241.806 136.314 242.757 136.505C243.201 136.581 243.645 136.669 244.089 136.758C244.153 136.91 244.191 137.05 244.254 137.19C246.486 143.341 248.922 149.544 250.063 155.848C250.346 157.43 250.541 159.026 250.647 160.629C250.685 161.302 250.71 161.974 250.71 162.646Z" fill="#F2F2F2"/>
<path d="M58.6709 143.671C58.8016 149.876 57.9453 156.063 56.1341 161.999C56.0706 162.215 55.9945 162.43 55.9184 162.646H18.5769C19.1107 160.017 19.9581 157.462 21.101 155.036C24.2085 148.44 29.2821 142.796 34.2923 137.189C41.1924 129.465 47.9275 121.804 48.993 111.758C51.7281 115.928 53.911 120.434 55.4872 125.165C53.5575 125.88 51.7864 126.966 50.2741 128.361C49.8555 128.755 49.4115 129.325 49.6272 129.871C49.8301 130.327 50.3882 130.48 50.8829 130.581C52.0752 130.809 53.2675 131.038 54.4598 131.253C55.3984 131.444 56.3497 131.621 57.301 131.799C58.1371 135.703 58.5958 139.679 58.6709 143.671Z" fill="#F2F2F2"/>
<path d="M90.0382 139.561C84.0514 143.202 80.2462 148.833 77.1387 155.137C74.4344 155.754 71.9379 157.065 69.8961 158.942C69.4648 159.336 69.0209 159.906 69.2492 160.452C69.4395 160.908 70.0103 161.061 70.5049 161.162C71.6845 161.39 72.8895 161.619 74.0691 161.834C73.955 162.101 73.8408 162.38 73.7267 162.646H34.1528C35.9492 160.223 37.9387 157.95 40.1016 155.848C40.5709 155.378 41.0529 154.934 41.5475 154.478C46.5922 149.919 52.3847 146.263 58.6709 143.671C68.5738 139.531 79.403 138.112 90.0382 139.561Z" fill="#F2F2F2"/>
<path d="M40.7484 162.646H5.51243C5.32002 159.825 5.33699 156.992 5.56322 154.173C6.97112 136.758 16.446 120.168 30.7408 110.122C28.9143 116.629 29.8529 123.098 31.7555 129.592C31.4892 129.681 31.2228 129.757 30.9818 129.858C29.0521 130.573 27.2811 131.659 25.7687 133.055C25.3501 133.448 24.9062 134.019 25.1218 134.564C25.312 135.021 25.8828 135.173 26.3775 135.274C27.5698 135.503 28.7621 135.731 29.9417 135.946C30.893 136.137 31.8443 136.314 32.7956 136.505C33.2395 136.581 33.6835 136.669 34.1274 136.758C34.1908 136.91 34.2289 137.05 34.2923 137.19C36.5247 143.341 38.96 149.544 40.1015 155.848C40.3841 157.43 40.5789 159.026 40.685 160.629C40.7231 161.302 40.7484 161.974 40.7484 162.646Z" fill="#F2F2F2"/>
<path d="M171.927 147.853L203.411 150.648L203.748 150.678V16.3368C203.636 16.2584 203.523 16.18 203.411 16.1016C196.849 11.512 189.751 7.74155 182.275 4.87411L180.666 27.0633L180.519 29.0947L178.928 51.0998L178.437 57.869L171.985 147.069L171.927 147.853Z" fill="#E6E6E6"/>
<path d="M94.067 13.835C93.842 13.9781 93.617 14.1213 93.3921 14.2713V150.678L94.067 150.617L125.21 147.853L125.152 147.069L118.7 57.869L118.209 51.0998L116.617 29.0947L116.471 27.0633L114.784 3.79364C107.508 6.31569 100.554 9.68603 94.067 13.835Z" fill="#E6E6E6"/>
<path d="M93.3921 14.2713C92.9388 14.5644 92.4855 14.8644 92.0389 15.1677V152.539C92.0389 155.972 94.0738 158.848 96.7938 159.581C97.2382 159.702 97.6967 159.762 98.1571 159.762H199.321C199.78 159.762 200.237 159.702 200.681 159.581C201.692 159.301 202.608 158.752 203.332 157.993C204.714 156.516 205.469 154.561 205.439 152.539V17.557C204.88 17.1446 204.317 16.7356 203.748 16.3368C203.636 16.2584 203.523 16.18 203.411 16.1016V152.539C203.411 152.981 203.359 153.422 203.254 153.852C202.773 155.88 201.188 157.366 199.321 157.366H98.1571C95.9007 157.366 94.067 155.201 94.067 152.539V13.835C93.842 13.9782 93.6171 14.1213 93.3921 14.2713Z" fill="#E6E6E6"/>
<path d="M204.425 27.0646H93.0521V29.0957H204.425V27.0646Z" fill="#E6E6E6"/>
<path d="M170.314 1.15549C169.64 0.988475 168.965 0.831684 168.283 0.68512V55.8376H170.314V1.15549Z" fill="#E6E6E6"/>
<path d="M129.195 0C128.516 0.126113 127.838 0.255637 127.163 0.395384V55.8376H129.195V0Z" fill="#E6E6E6"/>
<path d="M71.2166 156.207C71.2161 157.372 71.4394 158.527 71.8744 159.608C72.0415 160.028 72.2409 160.433 72.4709 160.822C72.7679 161.328 73.1126 161.805 73.5003 162.247C74.3565 163.222 75.4112 164.004 76.5939 164.54C77.7765 165.075 79.0599 165.352 80.3581 165.352H213.735C216.159 165.352 218.485 164.389 220.199 162.674C221.913 160.96 222.876 158.635 222.876 156.21C222.876 153.786 221.913 151.461 220.199 149.746C218.485 148.032 216.159 147.069 213.735 147.069H80.3581C77.9349 147.071 75.6117 148.034 73.8979 149.748C72.1842 151.461 71.2199 153.784 71.2166 156.207Z" fill="#E6E6E6"/>
<path d="M93.0521 57.8698L203.748 57.8698V51.0994L93.0521 51.0994V57.8698Z" fill="#E6E6E6"/>
<path d="M153.139 52.792H143.661C143.661 51.8044 144.053 50.8573 144.751 50.159C145.45 49.4606 146.397 49.0683 147.384 49.0683H149.415C149.904 49.0683 150.389 49.1646 150.84 49.3518C151.292 49.5389 151.703 49.8132 152.048 50.159C152.394 50.5048 152.669 50.9152 152.856 51.367C153.043 51.8188 153.139 52.303 153.139 52.792H153.139Z" fill="#E6E6E6"/>
<path d="M0 161.429C2.96103 164.937 6.1637 168.234 9.58462 171.296H284.505C287.926 168.234 291.129 164.937 294.09 161.429H0Z" fill="#2C2325"/>
<path d="M135.211 128.431V163.388H159.7V128.431C159.701 128.18 159.621 127.935 159.472 127.732C159.323 127.53 159.112 127.381 158.872 127.306C158.759 127.269 158.64 127.251 158.521 127.252H136.393C136.238 127.252 136.085 127.282 135.941 127.341C135.798 127.4 135.667 127.487 135.558 127.596C135.448 127.706 135.361 127.836 135.301 127.979C135.241 128.122 135.211 128.276 135.211 128.431ZM144.768 140.443C144.774 139.754 145.053 139.095 145.542 138.61C146.032 138.125 146.693 137.853 147.382 137.853C148.071 137.853 148.733 138.125 149.222 138.61C149.712 139.095 149.99 139.754 149.997 140.443V144.499C149.993 145.19 149.716 145.851 149.226 146.339C148.736 146.826 148.073 147.1 147.382 147.1C146.691 147.1 146.028 146.826 145.538 146.339C145.049 145.851 144.772 145.19 144.768 144.499V140.443Z" fill="#2F2E41"/>
<path d="M135.136 162.27V165.641C135.136 165.816 135.206 165.983 135.329 166.107C135.452 166.231 135.619 166.301 135.794 166.303H159.118C159.292 166.302 159.46 166.232 159.583 166.108C159.706 165.984 159.776 165.816 159.776 165.641V162.27H135.136Z" fill="#3F3D56"/>
<path d="M96.6847 75.7635V139.591C96.6853 140.404 97.0087 141.184 97.5839 141.759C98.159 142.334 98.9389 142.657 99.7523 142.658H194.337C195.151 142.657 195.931 142.334 196.506 141.759C197.081 141.184 197.404 140.404 197.405 139.591V75.7635C197.403 74.9508 197.079 74.172 196.504 73.5977C195.929 73.0234 195.15 72.7003 194.337 72.6993H99.7523C98.9396 72.7003 98.1605 73.0234 97.5855 73.5977C97.0105 74.172 96.6866 74.9508 96.6847 75.7635Z" fill="#3F3D56"/>
<path d="M98.9036 76.5576V138.803C98.9043 139.238 99.0773 139.654 99.3846 139.962C99.6919 140.269 100.108 140.442 100.543 140.443H193.55C193.985 140.442 194.401 140.269 194.708 139.962C195.016 139.654 195.189 139.238 195.189 138.803V76.5576C195.189 76.1225 195.017 75.7052 194.709 75.3972C194.402 75.0892 193.985 74.9157 193.55 74.9148H100.543C100.108 74.9157 99.691 75.0892 99.3836 75.3972C99.0763 75.7052 98.9036 76.1225 98.9036 76.5576Z" fill="#DE9E48"/>
<path d="M117.868 167.097C117.963 167.216 118.083 167.311 118.22 167.377C118.357 167.442 118.507 167.476 118.659 167.475H173.992C174.144 167.475 174.293 167.441 174.429 167.376C174.566 167.311 174.686 167.216 174.782 167.098C174.877 166.981 174.945 166.844 174.981 166.697C175.016 166.549 175.019 166.396 174.987 166.248L174.129 162.168C174.093 162.002 174.016 161.847 173.906 161.718C173.795 161.589 173.654 161.489 173.495 161.429C173.379 161.383 173.257 161.36 173.133 161.36H119.515C119.391 161.36 119.268 161.383 119.153 161.429C118.994 161.489 118.853 161.589 118.742 161.718C118.632 161.847 118.555 162.002 118.519 162.168L117.66 166.248C117.63 166.396 117.633 166.549 117.669 166.696C117.705 166.843 117.773 166.98 117.868 167.097Z" fill="#2F2E41"/>
<path d="M171.202 163.118H172.574C172.666 163.118 172.74 163.043 172.74 162.951V162.262C172.74 162.17 172.666 162.095 172.574 162.095H171.202C171.111 162.095 171.036 162.17 171.036 162.262V162.951C171.036 163.043 171.111 163.118 171.202 163.118Z" fill="#3F3D56"/>
<path d="M167.794 163.118H169.165C169.257 163.118 169.332 163.043 169.332 162.951V162.262C169.332 162.17 169.257 162.095 169.165 162.095H167.794C167.702 162.095 167.628 162.17 167.628 162.262V162.951C167.628 163.043 167.702 163.118 167.794 163.118Z" fill="#3F3D56"/>
<path d="M164.385 163.118H165.757C165.849 163.118 165.923 163.043 165.923 162.951V162.262C165.923 162.17 165.849 162.095 165.757 162.095H164.385C164.294 162.095 164.219 162.17 164.219 162.262V162.951C164.219 163.043 164.294 163.118 164.385 163.118Z" fill="#3F3D56"/>
<path d="M160.977 163.118H162.348C162.44 163.118 162.515 163.043 162.515 162.951V162.262C162.515 162.17 162.44 162.095 162.348 162.095H160.977C160.885 162.095 160.811 162.17 160.811 162.262V162.951C160.811 163.043 160.885 163.118 160.977 163.118Z" fill="#3F3D56"/>
<path d="M157.569 163.118H158.94C159.032 163.118 159.106 163.043 159.106 162.951V162.262C159.106 162.17 159.032 162.095 158.94 162.095H157.569C157.477 162.095 157.402 162.17 157.402 162.262V162.951C157.402 163.043 157.477 163.118 157.569 163.118Z" fill="#3F3D56"/>
<path d="M154.16 163.118H155.531C155.623 163.118 155.698 163.043 155.698 162.951V162.262C155.698 162.17 155.623 162.095 155.531 162.095H154.16C154.068 162.095 153.994 162.17 153.994 162.262V162.951C153.994 163.043 154.068 163.118 154.16 163.118Z" fill="#3F3D56"/>
<path d="M150.752 163.118H152.123C152.215 163.118 152.289 163.043 152.289 162.951V162.262C152.289 162.17 152.215 162.095 152.123 162.095H150.752C150.66 162.095 150.585 162.17 150.585 162.262V162.951C150.585 163.043 150.66 163.118 150.752 163.118Z" fill="#3F3D56"/>
<path d="M147.343 163.118H148.715C148.806 163.118 148.881 163.043 148.881 162.951V162.262C148.881 162.17 148.806 162.095 148.715 162.095H147.343C147.251 162.095 147.177 162.17 147.177 162.262V162.951C147.177 163.043 147.251 163.118 147.343 163.118Z" fill="#3F3D56"/>
<path d="M143.935 155.118H145.306C145.398 155.118 145.473 155.043 145.473 154.951V154.262C145.473 154.17 145.398 154.095 145.306 154.095H143.935C143.843 154.095 143.768 154.17 143.768 154.262V154.951C143.768 155.043 143.843 155.118 143.935 155.118Z" fill="#3F3D56"/>
<path d="M140.526 163.118H141.898C141.99 163.118 142.064 163.043 142.064 162.951V162.262C142.064 162.17 141.99 162.095 141.898 162.095H140.526C140.434 162.095 140.36 162.17 140.36 162.262V162.951C140.36 163.043 140.434 163.118 140.526 163.118Z" fill="#3F3D56"/>
<path d="M137.118 163.118H138.489C138.581 163.118 138.656 163.043 138.656 162.951V162.262C138.656 162.17 138.581 162.095 138.489 162.095H137.118C137.026 162.095 136.951 162.17 136.951 162.262V162.951C136.951 163.043 137.026 163.118 137.118 163.118Z" fill="#3F3D56"/>
<path d="M133.709 163.118H135.081C135.173 163.118 135.247 163.043 135.247 162.951V162.262C135.247 162.17 135.173 162.095 135.081 162.095H133.709C133.617 162.095 133.543 162.17 133.543 162.262V162.951C133.543 163.043 133.617 163.118 133.709 163.118Z" fill="#3F3D56"/>
<path d="M130.301 163.118H131.672C131.764 163.118 131.839 163.043 131.839 162.951V162.262C131.839 162.17 131.764 162.095 131.672 162.095H130.301C130.209 162.095 130.134 162.17 130.134 162.262V162.951C130.134 163.043 130.209 163.118 130.301 163.118Z" fill="#3F3D56"/>
<path d="M126.892 163.118H128.264C128.356 163.118 128.43 163.043 128.43 162.951V162.262C128.43 162.17 128.356 162.095 128.264 162.095H126.892C126.8 162.095 126.726 162.17 126.726 162.262V162.951C126.726 163.043 126.8 163.118 126.892 163.118Z" fill="#3F3D56"/>
<path d="M123.484 163.118H124.855C124.947 163.118 125.022 163.043 125.022 162.951V162.262C125.022 162.17 124.947 162.095 124.855 162.095H123.484C123.392 162.095 123.317 162.17 123.317 162.262V162.951C123.317 163.043 123.392 163.118 123.484 163.118Z" fill="#3F3D56"/>
<path d="M120.075 163.118H121.447C121.539 163.118 121.613 163.043 121.613 162.951V162.262C121.613 162.17 121.539 162.095 121.447 162.095H120.075C119.983 162.095 119.909 162.17 119.909 162.262V162.951C119.909 163.043 119.983 163.118 120.075 163.118Z" fill="#3F3D56"/>
<path d="M171.243 164.822H172.614C172.706 164.822 172.781 164.747 172.781 164.656V163.966C172.781 163.874 172.706 163.799 172.614 163.799H171.243C171.151 163.799 171.076 163.874 171.076 163.966V164.656C171.076 164.747 171.151 164.822 171.243 164.822Z" fill="#3F3D56"/>
<path d="M167.834 164.822H169.206C169.298 164.822 169.372 164.747 169.372 164.656V163.966C169.372 163.874 169.298 163.799 169.206 163.799H167.834C167.742 163.799 167.668 163.874 167.668 163.966V164.656C167.668 164.747 167.742 164.822 167.834 164.822Z" fill="#3F3D56"/>
<path d="M164.426 164.822H165.797C165.889 164.822 165.964 164.747 165.964 164.656V163.966C165.964 163.874 165.889 163.799 165.797 163.799H164.426C164.334 163.799 164.259 163.874 164.259 163.966V164.656C164.259 164.747 164.334 164.822 164.426 164.822Z" fill="#3F3D56"/>
<path d="M161.017 164.822H162.389C162.481 164.822 162.555 164.747 162.555 164.656V163.966C162.555 163.874 162.481 163.799 162.389 163.799H161.017C160.925 163.799 160.851 163.874 160.851 163.966V164.656C160.851 164.747 160.925 164.822 161.017 164.822Z" fill="#3F3D56"/>
<path d="M157.609 164.822H158.98C159.072 164.822 159.147 164.747 159.147 164.656V163.966C159.147 163.874 159.072 163.799 158.98 163.799H157.609C157.517 163.799 157.442 163.874 157.442 163.966V164.656C157.442 164.747 157.517 164.822 157.609 164.822Z" fill="#3F3D56"/>
<path d="M154.2 164.822H155.572C155.664 164.822 155.738 164.747 155.738 164.656V163.966C155.738 163.874 155.664 163.799 155.572 163.799H154.2C154.108 163.799 154.034 163.874 154.034 163.966V164.656C154.034 164.747 154.108 164.822 154.2 164.822Z" fill="#3F3D56"/>
<path d="M150.792 164.822H152.163C152.255 164.822 152.33 164.747 152.33 164.656V163.966C152.33 163.874 152.255 163.799 152.163 163.799H150.792C150.7 163.799 150.625 163.874 150.625 163.966V164.656C150.625 164.747 150.7 164.822 150.792 164.822Z" fill="#3F3D56"/>
<path d="M147.383 164.822H148.755C148.847 164.822 148.921 164.747 148.921 164.656V163.966C148.921 163.874 148.847 163.799 148.755 163.799H147.383C147.292 163.799 147.217 163.874 147.217 163.966V164.656C147.217 164.747 147.292 164.822 147.383 164.822Z" fill="#3F3D56"/>
<path d="M143.975 164.822H145.346C145.438 164.822 145.513 164.747 145.513 164.656V163.966C145.513 163.874 145.438 163.799 145.346 163.799H143.975C143.883 163.799 143.809 163.874 143.809 163.966V164.656C143.809 164.747 143.883 164.822 143.975 164.822Z" fill="#3F3D56"/>
<path d="M140.566 164.822H141.938C142.03 164.822 142.104 164.747 142.104 164.656V163.966C142.104 163.874 142.03 163.799 141.938 163.799H140.566C140.475 163.799 140.4 163.874 140.4 163.966V164.656C140.4 164.747 140.475 164.822 140.566 164.822Z" fill="#3F3D56"/>
<path d="M137.158 164.822H138.529C138.621 164.822 138.696 164.747 138.696 164.656V163.966C138.696 163.874 138.621 163.799 138.529 163.799H137.158C137.066 163.799 136.992 163.874 136.992 163.966V164.656C136.992 164.747 137.066 164.822 137.158 164.822Z" fill="#3F3D56"/>
<path d="M133.75 164.822H135.121C135.213 164.822 135.287 164.747 135.287 164.656V163.966C135.287 163.874 135.213 163.799 135.121 163.799H133.75C133.658 163.799 133.583 163.874 133.583 163.966V164.656C133.583 164.747 133.658 164.822 133.75 164.822Z" fill="#3F3D56"/>
<path d="M130.341 164.822H131.712C131.804 164.822 131.879 164.747 131.879 164.656V163.966C131.879 163.874 131.804 163.799 131.712 163.799H130.341C130.249 163.799 130.175 163.874 130.175 163.966V164.656C130.175 164.747 130.249 164.822 130.341 164.822Z" fill="#3F3D56"/>
<path d="M126.933 164.822H128.304C128.396 164.822 128.47 164.747 128.47 164.656V163.966C128.47 163.874 128.396 163.799 128.304 163.799H126.933C126.841 163.799 126.766 163.874 126.766 163.966V164.656C126.766 164.747 126.841 164.822 126.933 164.822Z" fill="#3F3D56"/>
<path d="M123.524 164.822H124.896C124.987 164.822 125.062 164.747 125.062 164.656V163.966C125.062 163.874 124.987 163.799 124.896 163.799H123.524C123.432 163.799 123.358 163.874 123.358 163.966V164.656C123.358 164.747 123.432 164.822 123.524 164.822Z" fill="#3F3D56"/>
<path d="M120.116 164.822H121.487C121.579 164.822 121.654 164.747 121.654 164.656V163.966C121.654 163.874 121.579 163.799 121.487 163.799H120.116C120.024 163.799 119.949 163.874 119.949 163.966V164.656C119.949 164.747 120.024 164.822 120.116 164.822Z" fill="#3F3D56"/>
<path d="M142.952 166.867H156.253C156.345 166.867 156.42 166.793 156.42 166.701V166.011C156.42 165.919 156.345 165.845 156.253 165.845H142.952C142.86 165.845 142.786 165.919 142.786 166.011V166.701C142.786 166.793 142.86 166.867 142.952 166.867Z" fill="#3F3D56"/>
<path d="M105.217 83.4894H192.243C192.333 83.4874 192.42 83.45 192.483 83.3854C192.546 83.3207 192.582 83.2338 192.582 83.1433C192.582 83.0528 192.546 82.9659 192.483 82.9012C192.42 82.8365 192.333 82.7992 192.243 82.7972H105.217C105.126 82.7992 105.04 82.8365 104.977 82.9012C104.914 82.9659 104.878 83.0528 104.878 83.1433C104.878 83.2338 104.914 83.3207 104.977 83.3854C105.04 83.45 105.126 83.4874 105.217 83.4894Z" fill="#3F3D56"/>
<path d="M186.319 81.0302C187.439 81.0302 188.347 80.1019 188.347 78.9568C188.347 77.8117 187.439 76.8834 186.319 76.8834C185.199 76.8834 184.291 77.8117 184.291 78.9568C184.291 80.1019 185.199 81.0302 186.319 81.0302Z" fill="#3F3D56"/>
<path d="M179.312 81.0302C180.433 81.0302 181.341 80.1019 181.341 78.9568C181.341 77.8117 180.433 76.8834 179.312 76.8834C178.192 76.8834 177.284 77.8117 177.284 78.9568C177.284 80.1019 178.192 81.0302 179.312 81.0302Z" fill="#3F3D56"/>
<path d="M172.306 81.0302C173.426 81.0302 174.334 80.1019 174.334 78.9568C174.334 77.8117 173.426 76.8834 172.306 76.8834C171.186 76.8834 170.278 77.8117 170.278 78.9568C170.278 80.1019 171.186 81.0302 172.306 81.0302Z" fill="#3F3D56"/>
<path d="M109.064 77.7745C109.064 77.8235 109.073 77.8721 109.092 77.9174C109.111 77.9628 109.138 78.0041 109.172 78.0389C109.207 78.0737 109.248 78.1014 109.293 78.1204C109.338 78.1393 109.387 78.1492 109.436 78.1494H114.412C114.51 78.1471 114.604 78.1064 114.673 78.036C114.742 77.9656 114.78 77.8712 114.78 77.7728C114.78 77.6744 114.742 77.5799 114.673 77.5095C114.604 77.4391 114.51 77.3984 114.412 77.3961H109.436C109.336 77.3973 109.242 77.4378 109.172 77.5087C109.102 77.5796 109.064 77.6751 109.064 77.7745Z" fill="#3F3D56"/>
<path d="M109.064 79.189C109.064 79.238 109.073 79.2866 109.092 79.332C109.111 79.3774 109.138 79.4186 109.172 79.4534C109.207 79.4883 109.248 79.5159 109.293 79.5349C109.338 79.5539 109.387 79.5637 109.436 79.5639H114.412C114.511 79.5618 114.604 79.5211 114.673 79.4507C114.742 79.3803 114.781 79.2858 114.781 79.1873C114.781 79.0888 114.742 78.9943 114.673 78.9239C114.604 78.8535 114.511 78.8128 114.412 78.8107H109.436C109.336 78.8119 109.242 78.8523 109.172 78.9232C109.102 78.9941 109.064 79.0897 109.064 79.189Z" fill="#3F3D56"/>
<path d="M109.064 80.6001C109.064 80.6995 109.102 80.795 109.172 80.8659C109.242 80.9368 109.336 80.9773 109.436 80.9785H114.412C114.51 80.9762 114.604 80.9355 114.673 80.8651C114.742 80.7947 114.78 80.7002 114.78 80.6018C114.78 80.5034 114.742 80.4089 114.673 80.3385C114.604 80.2682 114.51 80.2275 114.412 80.2252H109.436C109.387 80.2254 109.338 80.2353 109.293 80.2542C109.248 80.2732 109.207 80.3009 109.172 80.3357C109.138 80.3705 109.111 80.4118 109.092 80.4571C109.073 80.5025 109.064 80.5511 109.064 80.6001Z" fill="#3F3D56"/>
<path d="M110.602 91.5322H108.814C108.272 91.5322 107.832 91.9717 107.832 92.5138C107.832 93.056 108.272 93.4954 108.814 93.4954H110.602C111.144 93.4954 111.584 93.056 111.584 92.5138C111.584 91.9717 111.144 91.5322 110.602 91.5322Z" fill="#E6E6E6"/>
<path d="M131.053 91.5322H129.265C128.723 91.5322 128.283 91.9717 128.283 92.5138C128.283 93.056 128.723 93.4954 129.265 93.4954H131.053C131.595 93.4954 132.035 93.056 132.035 92.5138C132.035 91.9717 131.595 91.5322 131.053 91.5322Z" fill="#E6E6E6"/>
<path d="M136.847 91.5322H135.059C134.517 91.5322 134.078 91.9717 134.078 92.5138C134.078 93.056 134.517 93.4954 135.059 93.4954H136.847C137.39 93.4954 137.829 93.056 137.829 92.5138C137.829 91.9717 137.39 91.5322 136.847 91.5322Z" fill="#E6E6E6"/>
<path d="M125.49 91.3685H114.377C113.835 91.3685 113.395 91.808 113.395 92.3502C113.395 92.8923 113.835 93.3318 114.377 93.3318H125.49C126.032 93.3318 126.472 92.8923 126.472 92.3502C126.472 91.808 126.032 91.3685 125.49 91.3685Z" fill="#E6E6E6"/>
<path d="M152.758 91.3685H141.644C141.102 91.3685 140.663 91.808 140.663 92.3502C140.663 92.8923 141.102 93.3318 141.644 93.3318H152.758C153.3 93.3318 153.74 92.8923 153.74 92.3502C153.74 91.808 153.3 91.3685 152.758 91.3685Z" fill="#E6E6E6"/>
<path d="M116.056 95.9632H114.268C113.725 95.9632 113.286 96.4027 113.286 96.9448C113.286 97.487 113.725 97.9264 114.268 97.9264H116.056C116.598 97.9264 117.037 97.487 117.037 96.9448C117.037 96.4027 116.598 95.9632 116.056 95.9632Z" fill="#E6E6E6"/>
<path d="M136.507 95.9632H134.718C134.176 95.9632 133.737 96.4027 133.737 96.9448C133.737 97.487 134.176 97.9264 134.718 97.9264H136.507C137.049 97.9264 137.488 97.487 137.488 96.9448C137.488 96.4027 137.049 95.9632 136.507 95.9632Z" fill="#E6E6E6"/>
<path d="M142.301 95.9632H140.513C139.971 95.9632 139.531 96.4027 139.531 96.9448C139.531 97.487 139.971 97.9264 140.513 97.9264H142.301C142.843 97.9264 143.283 97.487 143.283 96.9448C143.283 96.4027 142.843 95.9632 142.301 95.9632Z" fill="#E6E6E6"/>
<path d="M130.944 95.7996H119.83C119.288 95.7996 118.849 96.2391 118.849 96.7812C118.849 97.3233 119.288 97.7628 119.83 97.7628H130.944C131.486 97.7628 131.925 97.3233 131.925 96.7812C131.925 96.2391 131.486 95.7996 130.944 95.7996Z" fill="#E6E6E6"/>
<path d="M158.212 95.7996H147.098C146.556 95.7996 146.116 96.2391 146.116 96.7812C146.116 97.3233 146.556 97.7628 147.098 97.7628H158.212C158.754 97.7628 159.193 97.3233 159.193 96.7812C159.193 96.2391 158.754 95.7996 158.212 95.7996Z" fill="#E6E6E6"/>
<path d="M121.509 100.394H119.721C119.179 100.394 118.74 100.834 118.74 101.376C118.74 101.918 119.179 102.357 119.721 102.357H121.509C122.051 102.357 122.491 101.918 122.491 101.376C122.491 100.834 122.051 100.394 121.509 100.394Z" fill="#E6E6E6"/>
<path d="M141.96 100.394H140.172C139.63 100.394 139.19 100.834 139.19 101.376C139.19 101.918 139.63 102.357 140.172 102.357H141.96C142.502 102.357 142.942 101.918 142.942 101.376C142.942 100.834 142.502 100.394 141.96 100.394Z" fill="#E6E6E6"/>
<path d="M147.755 100.394H145.966C145.424 100.394 144.985 100.834 144.985 101.376C144.985 101.918 145.424 102.357 145.966 102.357H147.755C148.297 102.357 148.736 101.918 148.736 101.376C148.736 100.834 148.297 100.394 147.755 100.394Z" fill="#E6E6E6"/>
<path d="M136.397 100.231H125.284C124.742 100.231 124.302 100.67 124.302 101.212C124.302 101.754 124.742 102.194 125.284 102.194H136.397C136.94 102.194 137.379 101.754 137.379 101.212C137.379 100.67 136.94 100.231 136.397 100.231Z" fill="#E6E6E6"/>
<path d="M163.665 100.231H152.552C152.009 100.231 151.57 100.67 151.57 101.212C151.57 101.754 152.009 102.194 152.552 102.194H163.665C164.207 102.194 164.647 101.754 164.647 101.212C164.647 100.67 164.207 100.231 163.665 100.231Z" fill="#E6E6E6"/>
<path d="M126.963 104.825H125.175C124.633 104.825 124.193 105.265 124.193 105.807C124.193 106.349 124.633 106.788 125.175 106.788H126.963C127.505 106.788 127.944 106.349 127.944 105.807C127.944 105.265 127.505 104.825 126.963 104.825Z" fill="#E6E6E6"/>
<path d="M147.414 104.825H145.626C145.083 104.825 144.644 105.265 144.644 105.807C144.644 106.349 145.083 106.788 145.626 106.788H147.414C147.956 106.788 148.395 106.349 148.395 105.807C148.395 105.265 147.956 104.825 147.414 104.825Z" fill="#E6E6E6"/>
<path d="M153.208 104.825H151.42C150.878 104.825 150.438 105.265 150.438 105.807C150.438 106.349 150.878 106.788 151.42 106.788H153.208C153.75 106.788 154.19 106.349 154.19 105.807C154.19 105.265 153.75 104.825 153.208 104.825Z" fill="#E6E6E6"/>
<path d="M141.851 104.662H130.737C130.195 104.662 129.756 105.101 129.756 105.643C129.756 106.185 130.195 106.625 130.737 106.625H141.851C142.393 106.625 142.833 106.185 142.833 105.643C142.833 105.101 142.393 104.662 141.851 104.662Z" fill="#E6E6E6"/>
<path d="M131.053 122.445H129.265C128.723 122.445 128.283 122.884 128.283 123.426C128.283 123.969 128.723 124.408 129.265 124.408H131.053C131.595 124.408 132.035 123.969 132.035 123.426C132.035 122.884 131.595 122.445 131.053 122.445Z" fill="#E6E6E6"/>
<path d="M136.847 122.445H135.059C134.517 122.445 134.078 122.884 134.078 123.426C134.078 123.969 134.517 124.408 135.059 124.408H136.847C137.39 124.408 137.829 123.969 137.829 123.426C137.829 122.884 137.39 122.445 136.847 122.445Z" fill="#E6E6E6"/>
<path d="M152.758 122.608H141.644C141.102 122.608 140.663 123.048 140.663 123.59C140.663 124.132 141.102 124.572 141.644 124.572H152.758C153.3 124.572 153.74 124.132 153.74 123.59C153.74 123.048 153.3 122.608 152.758 122.608Z" fill="#E6E6E6"/>
<path d="M110.602 122.445H108.814C108.272 122.445 107.832 122.884 107.832 123.426C107.832 123.969 108.272 124.408 108.814 124.408H110.602C111.144 124.408 111.584 123.969 111.584 123.426C111.584 122.884 111.144 122.445 110.602 122.445Z" fill="#E6E6E6"/>
<path d="M125.49 122.608H114.377C113.835 122.608 113.395 123.048 113.395 123.59C113.395 124.132 113.835 124.572 114.377 124.572H125.49C126.032 124.572 126.472 124.132 126.472 123.59C126.472 123.048 126.032 122.608 125.49 122.608Z" fill="#E6E6E6"/>
<path d="M116.056 118.014H114.268C113.725 118.014 113.286 118.453 113.286 118.995C113.286 119.538 113.725 119.977 114.268 119.977H116.056C116.598 119.977 117.037 119.538 117.037 118.995C117.037 118.453 116.598 118.014 116.056 118.014Z" fill="#E6E6E6"/>
<path d="M136.507 118.014H134.718C134.176 118.014 133.737 118.453 133.737 118.995C133.737 119.538 134.176 119.977 134.718 119.977H136.507C137.049 119.977 137.488 119.538 137.488 118.995C137.488 118.453 137.049 118.014 136.507 118.014Z" fill="#E6E6E6"/>
<path d="M142.301 118.014H140.513C139.971 118.014 139.531 118.453 139.531 118.995C139.531 119.538 139.971 119.977 140.513 119.977H142.301C142.843 119.977 143.283 119.538 143.283 118.995C143.283 118.453 142.843 118.014 142.301 118.014Z" fill="#E6E6E6"/>
<path d="M130.944 118.177H119.83C119.288 118.177 118.849 118.617 118.849 119.159C118.849 119.701 119.288 120.141 119.83 120.141H130.944C131.486 120.141 131.925 119.701 131.925 119.159C131.925 118.617 131.486 118.177 130.944 118.177Z" fill="#E6E6E6"/>
<path d="M121.509 113.583H119.721C119.179 113.583 118.74 114.022 118.74 114.564C118.74 115.107 119.179 115.546 119.721 115.546H121.509C122.051 115.546 122.491 115.107 122.491 114.564C122.491 114.022 122.051 113.583 121.509 113.583Z" fill="#E6E6E6"/>
<path d="M141.96 113.583H140.172C139.63 113.583 139.19 114.022 139.19 114.564C139.19 115.107 139.63 115.546 140.172 115.546H141.96C142.502 115.546 142.942 115.107 142.942 114.564C142.942 114.022 142.502 113.583 141.96 113.583Z" fill="#E6E6E6"/>
<path d="M147.755 113.583H145.966C145.424 113.583 144.985 114.022 144.985 114.564C144.985 115.107 145.424 115.546 145.966 115.546H147.755C148.297 115.546 148.736 115.107 148.736 114.564C148.736 114.022 148.297 113.583 147.755 113.583Z" fill="#E6E6E6"/>
<path d="M136.397 113.746H125.284C124.742 113.746 124.302 114.186 124.302 114.728C124.302 115.27 124.742 115.71 125.284 115.71H136.397C136.94 115.71 137.379 115.27 137.379 114.728C137.379 114.186 136.94 113.746 136.397 113.746Z" fill="#E6E6E6"/>
<path d="M126.963 109.152H125.175C124.633 109.152 124.193 109.591 124.193 110.133C124.193 110.676 124.633 111.115 125.175 111.115H126.963C127.505 111.115 127.944 110.676 127.944 110.133C127.944 109.591 127.505 109.152 126.963 109.152Z" fill="#E6E6E6"/>
<path d="M147.414 109.152H145.626C145.083 109.152 144.644 109.591 144.644 110.133C144.644 110.676 145.083 111.115 145.626 111.115H147.414C147.956 111.115 148.395 110.676 148.395 110.133C148.395 109.591 147.956 109.152 147.414 109.152Z" fill="#E6E6E6"/>
<path d="M153.208 109.152H151.42C150.878 109.152 150.438 109.591 150.438 110.133C150.438 110.676 150.878 111.115 151.42 111.115H153.208C153.75 111.115 154.19 110.676 154.19 110.133C154.19 109.591 153.75 109.152 153.208 109.152Z" fill="#E6E6E6"/>
<path d="M141.851 109.315H130.737C130.195 109.315 129.756 109.755 129.756 110.297C129.756 110.839 130.195 111.279 130.737 111.279H141.851C142.393 111.279 142.833 110.839 142.833 110.297C142.833 109.755 142.393 109.315 141.851 109.315Z" fill="#E6E6E6"/>
<path d="M119.266 186.086C119.191 186.124 119.116 186.161 119.042 186.195C118.568 186.43 118.091 186.662 117.61 186.891C116.172 187.576 114.715 188.227 113.24 188.844C109.36 190.467 105.378 191.836 101.321 192.944C100.639 188.694 99.9779 178.669 99.3439 171.297C99.2247 169.91 99.1054 168.618 98.9861 167.476C98.8728 165.977 98.6575 164.487 98.3419 163.018C98.311 162.903 98.2663 162.792 98.2089 162.687C98.2737 163.277 98.3419 165.036 98.4066 167.476C98.4407 168.618 98.4714 169.91 98.5055 171.297C98.6657 178.393 98.8327 188.05 98.9997 193.547C98.5259 193.663 98.0487 193.779 97.5715 193.888C97.2716 193.96 96.9683 194.028 96.6649 194.093C96.2968 194.175 95.9287 194.256 95.5605 194.331C95.1754 194.413 94.7902 194.492 94.4051 194.566C88.111 195.803 81.7116 196.424 75.2972 196.421C74.8711 196.421 74.4485 196.417 74.0224 196.414C73.8929 196.414 73.7634 196.41 73.6304 196.407C73.2555 196.4 72.867 196.393 72.4716 196.383C64.8914 196.174 57.361 195.088 50.0302 193.149L50.3267 171.297L50.3779 167.476L50.3983 166.027C50.2295 166.493 50.1285 166.981 50.0984 167.476C49.9791 168.406 49.8564 169.726 49.7337 171.297C49.2667 177.35 48.7861 187.116 48.2885 192.671C42.3952 190.994 38.0869 189.464 32.7015 186.771C32.4936 186.669 32.2823 186.563 32.0744 186.458C32.1119 186.195 32.1528 185.933 32.1903 185.664C32.8004 181.423 32.0812 175.905 32.7561 171.297C33.2707 167.742 33.8025 164.327 34.3376 161.429C34.9852 157.942 35.643 155.202 36.2941 153.869C37.0439 152.332 37.7938 150.819 38.5198 149.37C38.8334 148.746 39.1413 148.134 39.4435 147.533C39.6071 147.209 39.7707 146.889 39.9309 146.575C40.6603 145.147 41.3488 143.828 41.9794 142.659C42.4225 141.837 42.8315 141.094 43.2064 140.443C43.6461 139.676 44.0347 139.042 44.3551 138.562C46.7216 134.975 50.2428 132.304 54.3351 130.992L54.4373 130.964L54.5362 131.005L54.6487 131.056L61.1452 128.681L64.0458 121.697L78.9442 120.78L81.3506 122.61L82.5811 123.548L83.8933 124.546L86.3065 126.383L86.9916 126.595L88.0108 126.908L94.9811 129.049L95.0527 129.018L95.1549 129.045C98.8789 130.237 102.139 132.561 104.48 135.692C104.712 135.992 104.927 136.302 105.135 136.616C105.701 137.454 106.464 138.78 107.364 140.443C107.736 141.128 108.128 141.872 108.54 142.659C108.789 143.133 110.936 149.834 113.026 156.678C114.979 163.086 116.881 169.62 117.129 171.297C117.174 171.607 117.221 171.921 117.266 172.231C117.549 174.17 117.828 176.123 118.097 178.029C118.496 180.854 118.885 183.581 119.256 186.018C119.26 186.042 119.263 186.062 119.266 186.086Z" fill="#3F3D56"/>
<path opacity="0.2" d="M103.478 161.414L100.582 150.237L98.0242 159.881L103.478 161.414Z" fill="black"/>
<path d="M5.39538 161.284C5.54554 161.721 5.8304 162.1 6.20905 162.365C6.58769 162.63 7.04065 162.768 7.50287 162.76L16.5325 162.528C16.9981 162.519 17.4483 162.359 17.8157 162.073C18.1832 161.787 18.4482 161.39 18.5711 160.94L19.8489 147.277C20.3022 147.482 20.7958 147.584 21.2934 147.574C22.1665 147.552 22.9951 147.184 23.597 146.551C24.1988 145.918 24.5246 145.072 24.5027 144.199C24.4808 143.326 24.113 142.497 23.4801 141.895C22.8472 141.294 22.0012 140.968 21.1281 140.99C20.9292 140.989 20.7308 141.01 20.5363 141.051C20.3248 140.822 20.0677 140.64 19.7816 140.517C19.4954 140.393 19.1866 140.331 18.875 140.334L4.98532 140.693C4.8701 140.697 4.75546 140.712 4.6427 140.736C4.3381 140.792 4.0492 140.914 3.79544 141.092C3.54168 141.269 3.32895 141.499 3.17157 141.766C3.01419 142.033 2.91582 142.331 2.88306 142.639C2.85031 142.947 2.88394 143.259 2.98169 143.553L5.39538 161.284ZM20.1109 146.349L21.0202 143.093C21.1236 142.717 21.126 142.32 21.0271 141.943C21.0712 141.943 21.1102 141.922 21.1543 141.922C21.7777 141.909 22.3808 142.144 22.8314 142.575C23.2819 143.006 23.5432 143.598 23.5578 144.222C23.5724 144.845 23.3392 145.449 22.9093 145.9C22.4794 146.352 21.8879 146.615 21.2646 146.631C20.8615 146.644 20.4627 146.546 20.1109 146.349Z" fill="#2F2E41"/>
<path d="M4.6427 140.736C4.93862 142.428 8.26559 143.617 12.266 143.41C15.9447 143.241 18.9526 141.949 19.5037 140.418C19.2997 140.358 19.0876 140.33 18.875 140.334L4.98532 140.693C4.8701 140.697 4.75546 140.712 4.6427 140.736Z" fill="#3F3D56"/>
<path d="M12.9992 153.776C13.0175 153.771 13.0349 153.763 13.0506 153.753L15.0116 152.47C15.0353 152.454 15.0548 152.433 15.0683 152.408C15.0817 152.383 15.0888 152.355 15.0888 152.327C15.0888 152.299 15.0818 152.271 15.0683 152.246C15.0549 152.221 15.0354 152.2 15.0117 152.185L12.9735 150.85C12.9548 150.837 12.9338 150.829 12.9118 150.824C12.8898 150.82 12.8671 150.82 12.8452 150.825C12.8232 150.829 12.8023 150.838 12.7838 150.851C12.7652 150.863 12.7494 150.879 12.7371 150.898C12.7248 150.917 12.7163 150.938 12.7121 150.96C12.708 150.982 12.7082 151.005 12.7128 151.027C12.7174 151.049 12.7264 151.069 12.739 151.088C12.7517 151.106 12.7679 151.122 12.7867 151.134L14.6072 152.327L12.8641 153.468C12.8303 153.49 12.8055 153.523 12.794 153.562C12.7825 153.601 12.7851 153.642 12.8013 153.679C12.8175 153.716 12.8463 153.746 12.8825 153.764C12.9188 153.781 12.9601 153.786 12.9992 153.776H12.9992Z" fill="#DE9E48"/>
<path d="M9.90201 153.919C9.93492 153.91 9.9646 153.892 9.98722 153.867C10.0099 153.842 10.0244 153.81 10.029 153.777C10.0336 153.743 10.0281 153.709 10.0131 153.678C9.99816 153.648 9.97443 153.622 9.94498 153.606L8.13745 152.569L9.8845 151.272C9.90245 151.258 9.9176 151.241 9.92908 151.222C9.94056 151.203 9.94814 151.182 9.95141 151.16C9.95467 151.138 9.95354 151.115 9.94808 151.093C9.94263 151.072 9.93296 151.051 9.91962 151.033C9.90628 151.015 9.88954 151 9.87034 150.989C9.85115 150.977 9.82989 150.97 9.80776 150.966C9.78564 150.963 9.76308 150.964 9.74139 150.97C9.7197 150.975 9.6993 150.985 9.68135 150.998L7.72536 152.451C7.70263 152.468 7.68446 152.49 7.67249 152.516C7.66051 152.541 7.65511 152.57 7.65677 152.598C7.65844 152.626 7.66711 152.653 7.68201 152.678C7.69691 152.702 7.71757 152.722 7.74212 152.736L9.77536 153.901C9.81372 153.923 9.85914 153.929 9.90201 153.919Z" fill="#DE9E48"/>
<path d="M12.8042 154.9C12.8207 154.896 12.8364 154.89 12.8509 154.881C12.87 154.869 12.8867 154.854 12.8999 154.836C12.9131 154.818 12.9227 154.797 12.928 154.776C12.9333 154.754 12.9342 154.731 12.9308 154.709C12.9274 154.687 12.9196 154.666 12.908 154.647L10.1282 150.076C10.1045 150.038 10.0667 150.011 10.0228 150C9.97899 149.989 9.93276 149.997 9.89425 150.02C9.85574 150.044 9.8281 150.081 9.81736 150.125C9.80662 150.169 9.81367 150.215 9.83696 150.254L12.6167 154.824C12.6357 154.855 12.6641 154.879 12.6979 154.893C12.7316 154.907 12.7688 154.909 12.8042 154.9Z" fill="#DE9E48"/>
<path d="M267.616 186.457C267.408 186.563 267.196 186.668 266.989 186.771C261.603 189.463 257.295 190.994 251.402 192.671C250.904 187.115 250.423 177.35 249.956 171.296C249.834 169.725 249.711 168.406 249.592 167.475C249.562 166.98 249.461 166.493 249.292 166.027L249.312 167.475L249.363 171.296L249.66 193.148C242.329 195.087 234.799 196.173 227.219 196.382C226.823 196.393 226.435 196.399 226.06 196.406C225.927 196.41 225.797 196.413 225.668 196.413C225.242 196.417 224.819 196.42 224.393 196.42C216.405 196.426 208.446 195.461 200.69 193.547C200.857 188.049 201.024 178.393 201.185 171.296C201.219 169.909 201.249 168.617 201.283 167.475C201.348 165.035 201.416 163.276 201.481 162.686C201.424 162.791 201.379 162.902 201.348 163.017C201.033 164.487 200.817 165.976 200.704 167.475C200.585 168.617 200.465 169.909 200.346 171.296C199.712 178.669 199.051 188.693 198.369 192.943C194.312 191.836 190.33 190.466 186.45 188.843C184.405 187.991 182.396 187.072 180.424 186.085C180.799 183.631 181.191 180.881 181.593 178.028C181.906 175.816 182.23 173.542 182.561 171.296C183.072 167.826 200.442 130.357 204.535 129.045L204.637 129.017L204.709 129.048L211.679 126.908L212.698 126.594L213.384 126.383L215.797 124.546L217.109 123.547L218.339 122.609L220.746 120.779L235.644 121.696L238.545 128.68L245.041 131.056L245.154 131.005L245.253 130.964L245.355 130.991C249.447 132.303 252.968 134.974 255.335 138.561C255.655 139.042 256.044 139.676 256.484 140.443C256.859 141.094 257.268 141.837 257.711 142.658C258.341 143.827 259.03 145.146 259.759 146.574C259.919 146.888 260.083 147.208 260.247 147.532C260.55 148.132 260.858 148.744 261.17 149.369C261.896 150.818 262.646 152.331 263.396 153.869C264.047 155.201 264.705 157.942 265.353 161.429C265.888 164.326 266.419 167.741 266.934 171.296C267.609 175.904 266.89 181.423 267.5 185.663C267.537 185.932 267.578 186.195 267.616 186.457Z" fill="#3F3D56"/>
<path d="M223.921 118.272C233.491 118.272 241.248 110.514 241.248 100.945C241.248 91.375 233.491 83.6172 223.921 83.6172C214.351 83.6172 206.593 91.375 206.593 100.945C206.593 110.514 214.351 118.272 223.921 118.272Z" fill="#FFB6B6"/>
<path opacity="0.2" d="M196.212 161.414L199.108 150.237L201.665 159.881L196.212 161.414Z" fill="black"/>
<path d="M273.281 154.131C272.244 168.406 273.318 174.691 267.599 186.46C262.395 189.007 256.974 191.086 251.402 192.671C250.822 192.834 250.242 192.993 249.66 193.148C242.329 195.087 234.799 196.173 227.219 196.382C226.823 196.393 226.435 196.399 226.06 196.406C225.927 196.41 225.797 196.413 225.668 196.413C225.242 196.417 224.819 196.42 224.393 196.42C216.405 196.426 208.446 195.461 200.69 193.547C199.913 193.356 199.14 193.155 198.369 192.943C194.312 191.836 190.33 190.466 186.45 188.843C184.405 187.991 182.396 187.072 180.424 186.085C179.977 185.861 179.531 185.636 179.091 185.404C176.831 181.429 175.546 176.596 175.519 170.788C177.083 160.781 269.824 145.501 273.281 154.131Z" fill="#372C2E"/>
<path opacity="0.2" d="M273.278 156.576C273.331 155.692 273.39 154.779 273.459 153.828C270.003 145.198 177.262 160.478 175.697 170.486C175.702 171.403 175.741 172.294 175.807 173.163C179.596 163.286 267.701 148.763 273.278 156.576Z" fill="black"/>
<path d="M173.212 154.804L180.825 150.998L174.481 133.87L172.809 125.233C172.592 124.11 172.084 123.065 171.336 122.2C170.589 121.336 169.627 120.683 168.548 120.307C167.468 119.93 166.309 119.844 165.186 120.056C164.063 120.268 163.015 120.771 162.147 121.515C160.861 122.617 160.053 124.176 159.895 125.862C159.736 127.549 160.239 129.231 161.297 130.554L167.503 138.311L173.212 154.804Z" fill="#FFB6B6"/>
<path d="M180.825 147.826L170.675 152.901L178.378 177.036C178.931 178.769 179.922 180.33 181.256 181.567C182.59 182.804 184.221 183.676 185.991 184.097C188.173 184.617 190.464 184.428 192.532 183.558C194.599 182.688 196.336 181.182 197.49 179.258L217.915 144.249C219.363 141.836 219.809 138.953 219.16 136.216C218.511 133.479 216.817 131.104 214.44 129.598C213.162 128.789 211.727 128.257 210.23 128.039C208.733 127.82 207.206 127.919 205.75 128.33C204.294 128.74 202.94 129.453 201.777 130.421C200.614 131.389 199.668 132.591 199.001 133.949L186.534 160.514L180.825 147.826Z" fill="#3F3D56"/>
<path d="M71.41 117.076C81.9395 117.076 90.4753 108.541 90.4753 98.0111C90.4753 87.4817 81.9395 78.9459 71.41 78.9459C60.8806 78.9459 52.3448 87.4817 52.3448 98.0111C52.3448 108.541 60.8806 117.076 71.41 117.076Z" fill="#A0616A"/>
<path d="M52.5737 84.873C54.1239 82.7836 56.3519 81.2982 58.0562 79.3325C58.9912 78.254 59.7677 77.032 60.8189 76.0664C62.7721 74.2725 65.5036 73.5374 68.1541 73.446C71.0588 73.3714 73.9402 73.9817 76.5653 75.2274C79.1903 76.4732 81.4852 78.3195 83.2642 80.6169C84.6496 79.8046 86.035 78.9924 87.4204 78.1801C87.9677 79.6207 88.515 81.0613 89.0623 82.5019C89.5115 82.1115 90.0845 81.8927 90.6795 81.8843C91.2746 81.876 91.8535 82.0786 92.3135 82.4562C92.7734 82.8339 93.0848 83.3622 93.1925 83.9476C93.3001 84.5329 93.197 85.1374 92.9015 85.654C93.2312 84.6352 94.7418 84.4191 95.5746 85.0921C96.4074 85.7652 96.6304 86.9627 96.4946 88.0248C96.3241 89.1901 95.8089 90.2777 95.0154 91.1478C94.2218 92.018 93.1861 92.6309 92.0415 92.9078C90.2336 93.3106 88.1295 92.8875 86.6825 94.0437C85.5224 94.9706 85.1722 96.6585 83.9883 97.5548C82.5295 98.6593 80.4676 98.1485 78.6542 98.3926C75.4816 98.8196 72.9694 102.065 73.3507 105.243C73.0637 104.24 72.762 103.208 72.1105 102.393C71.459 101.579 70.3617 101.028 69.3625 101.327C67.7108 101.822 67.4406 104.074 67.8409 105.751C68.9025 110.199 72.9261 117.389 72.9261 117.389C67.7017 119.45 61.4775 117.501 57.4465 113.59C53.4155 109.68 51.3161 104.142 50.4016 98.6013C49.6261 93.9024 49.736 88.6977 52.5737 84.873Z" fill="#2F2E41"/>
<path d="M245.635 110.497C249.263 102.181 247.208 94.528 242.786 90.4684V90.465C241.048 86.5691 238.737 83.5628 236.092 82.8573C234.814 82.0358 233.573 81.0712 232.196 80.5804C231.554 80.3403 230.871 80.2325 230.187 80.2636C229.503 80.2946 228.832 80.4638 228.215 80.7611L227.513 80.5736C226.916 79.05 226.217 79.0193 225.44 80.0214C222.448 78.6274 219.752 78.0036 217.352 78.0036C209.526 78.0036 204.897 84.6297 203.67 92.6396L210.211 94.3813L212.485 90.7581L211.435 94.7085L215.044 95.6663C220.539 102.821 213.964 119.325 205.63 128.507C207.614 127.958 209.59 127.495 211.558 127.116L218.709 116.632L214.278 126.176C216.578 125.838 219.513 126.162 222.72 126.813C223.801 125.402 224.37 123.52 223.811 121.843C224.725 123.612 225.355 125.513 225.679 127.478C232.448 129.131 241.682 129.979 246.658 130.607C250.679 129.294 250.69 114.471 245.635 110.497Z" fill="#2F2E41"/>
<path d="M247.995 82.2091C250.652 88.158 245.291 90.7167 240.38 90.6445C235.943 90.5792 232.171 87.4617 231.945 83.0295C231.836 80.9011 232.577 78.8166 234.005 77.2347C235.433 75.6527 237.432 74.7029 239.56 74.5941C243.992 74.3675 246.186 78.1568 247.995 82.2091Z" fill="#2F2E41"/>
<path d="M124.744 179.05L120.368 171.751L134.919 160.711L140.969 154.323C141.755 153.494 142.745 152.884 143.84 152.557C144.935 152.23 146.097 152.195 147.21 152.458C148.322 152.72 149.346 153.27 150.18 154.052C151.013 154.834 151.627 155.821 151.959 156.915C152.452 158.536 152.296 160.284 151.523 161.792C150.751 163.299 149.424 164.448 147.821 164.995L138.419 168.205L124.744 179.05Z" fill="#A0616A"/>
<path d="M127.907 178.809L121.093 184.488L119.256 186.018L119.042 186.195C118.568 186.43 118.091 186.662 117.61 186.891C116.172 187.576 114.715 188.227 113.24 188.844C109.36 190.467 105.378 191.836 101.321 192.944C100.551 193.155 99.7768 193.356 98.9997 193.547C98.5259 193.663 98.0487 193.779 97.5715 193.888C97.2716 193.96 96.9682 194.028 96.6649 194.093C96.2968 194.175 95.9287 194.256 95.5606 194.331C95.1754 194.413 94.7902 194.492 94.4051 194.566C93.3687 193.58 92.5436 192.394 91.9799 191.079C91.4162 189.764 91.1258 188.348 91.1261 186.918C91.1261 186.826 91.1261 186.73 91.1295 186.635L92.2237 158.573L92.7077 146.136C92.7822 143.323 93.9538 140.651 95.9722 138.691C97.9905 136.73 100.695 135.637 103.509 135.644C103.836 135.644 104.16 135.661 104.481 135.692C104.712 135.992 104.927 136.302 105.135 136.616C105.701 137.454 106.464 138.78 107.364 140.443C107.736 141.128 108.128 141.872 108.54 142.659C108.789 143.133 110.936 149.834 113.026 156.678L112.105 163.825L110.442 176.71L117.266 172.231L122.072 169.075L122.641 170.026L124.124 172.5L126.987 177.272L127.907 178.809Z" fill="#3F3D56"/>
<path d="M124.171 170.789C124.168 171.368 124.154 171.938 124.124 172.5C124.053 174.051 123.873 175.596 123.585 177.122C123.115 179.685 122.275 182.166 121.093 184.488C120.937 184.798 120.77 185.105 120.599 185.405C120.159 185.636 119.713 185.861 119.266 186.086C119.191 186.124 119.116 186.161 119.041 186.195C117.143 187.139 115.209 188.022 113.24 188.844C109.36 190.467 105.378 191.836 101.321 192.944C100.551 193.155 99.7768 193.357 98.9997 193.547C97.4829 193.922 95.9514 194.262 94.4051 194.567C88.111 195.803 81.7116 196.424 75.2972 196.421C74.8711 196.421 74.4485 196.417 74.0224 196.414C73.8929 196.414 73.7634 196.41 73.6305 196.407C73.2555 196.4 72.8669 196.393 72.4716 196.383C64.8914 196.174 57.361 195.088 50.0302 193.149C49.4473 192.995 48.8668 192.836 48.2885 192.671C42.7157 191.086 37.2953 189.008 32.0914 186.461C26.372 174.692 27.4457 168.407 26.4095 154.132C28.5364 148.818 64.5196 152.571 92.2237 158.573C99.7427 160.202 106.648 161.999 112.105 163.826C117.743 165.71 121.83 167.626 123.432 169.426C123.806 169.798 124.063 170.272 124.171 170.789Z" fill="#372C2E"/>
<path opacity="0.2" d="M26.4115 156.576C26.3586 155.692 26.2994 154.779 26.2304 153.828C29.6866 145.198 122.428 160.478 123.992 170.486C123.988 171.403 123.949 172.294 123.883 173.163C120.094 163.286 31.9887 148.763 26.4115 156.576Z" fill="black"/>
</g>
<defs>
<clipPath id="clip0_13_207">
<rect width="300" height="196.421" fill="white"/>
</clipPath>
</defs>
</svg>
