<svg width="300" height="173" viewBox="0 0 300 173" fill="none" xmlns="http://www.w3.org/2000/svg">
<g clip-path="url(#clip0_12_165)">
<path d="M65.0017 153.008C73.6183 153.008 80.6034 146.023 80.6034 137.406C80.6034 128.79 73.6183 121.805 65.0017 121.805C56.3851 121.805 49.4 128.79 49.4 137.406C49.4 146.023 56.3851 153.008 65.0017 153.008Z" fill="#F2F2F2"/>
<path d="M67.5386 150.725C76.1551 150.725 83.1403 143.74 83.1403 135.123C83.1403 126.507 76.1551 119.522 67.5386 119.522C58.922 119.522 51.9369 126.507 51.9369 135.123C51.9369 143.74 58.922 150.725 67.5386 150.725Z" fill="#DE9E48"/>
<path d="M273.138 117.86H80.1033V118.387H273.138V117.86Z" fill="#3F3D56"/>
<path d="M180.076 4.91204H111.561V3.49988H80.4933V4.91204H11.6954C11.0868 4.91204 10.4841 5.03192 9.92181 5.26482C9.35952 5.49773 8.84861 5.83911 8.41825 6.26947C7.98789 6.69983 7.64651 7.21074 7.41361 7.77303C7.1807 8.33532 7.06082 8.93798 7.06082 9.5466V103.365C7.06082 104.595 7.5491 105.773 8.41825 106.643C9.2874 107.512 10.4662 108 11.6954 108H180.076C181.306 108 182.484 107.512 183.354 106.643C184.223 105.773 184.711 104.595 184.711 103.365V9.5466C184.711 8.93798 184.591 8.33532 184.358 7.77303C184.125 7.21074 183.784 6.69983 183.354 6.26947C182.923 5.83911 182.412 5.49773 181.85 5.26482C181.288 5.03192 180.685 4.91204 180.076 4.91204Z" fill="#372C2E"/>
<path d="M178.497 13.1026H13.2743V106.305H178.497V13.1026Z" fill="#DE9E48"/>
<path d="M95.7447 10.5607C96.6806 10.5607 97.4393 9.802 97.4393 8.86611C97.4393 7.93021 96.6806 7.17151 95.7447 7.17151C94.8088 7.17151 94.0501 7.93021 94.0501 8.86611C94.0501 9.802 94.8088 10.5607 95.7447 10.5607Z" fill="#DE9E48"/>
<path opacity="0.1" d="M131.246 106.305H13.2744V13.1027L131.246 106.305Z" fill="black"/>
<path d="M39.1268 99.331C47.8981 99.331 55.0086 92.2205 55.0086 83.4492C55.0086 74.6779 47.8981 67.5674 39.1268 67.5674C30.3556 67.5674 23.2451 74.6779 23.2451 83.4492C23.2451 92.2205 30.3556 99.331 39.1268 99.331Z" fill="#F2F2F2"/>
<path d="M149.729 63.3676H134.296V66.5926H149.729V63.3676Z" fill="#3F3D56"/>
<path d="M168.388 38.2591H115.637V39.6412H168.388V38.2591Z" fill="#3F3D56"/>
<path d="M168.388 42.6358H115.637V44.018H168.388V42.6358Z" fill="#3F3D56"/>
<path d="M168.388 47.0125H115.637V48.3947H168.388V47.0125Z" fill="#3F3D56"/>
<path d="M168.388 51.3893H115.637V52.7714H168.388V51.3893Z" fill="#3F3D56"/>
<path d="M168.388 55.766H115.637V57.1481H168.388V55.766Z" fill="#3F3D56"/>
<path d="M168.388 14.9935H161.938V21.4434H168.388V14.9935Z" fill="#F2F2F2"/>
<path d="M171.383 24.438H163.551V16.606H171.383V24.438ZM163.891 24.0975H171.042V16.9465H163.891V24.0975Z" fill="#3F3D56"/>
<path d="M189.35 104.611H173.225V103.449C173.225 103.419 173.219 103.389 173.208 103.361C173.196 103.333 173.179 103.308 173.158 103.286C173.137 103.265 173.111 103.248 173.083 103.236C173.055 103.225 173.025 103.219 172.995 103.219H167.467C167.436 103.219 167.406 103.225 167.378 103.236C167.35 103.248 167.325 103.265 167.304 103.286C167.282 103.308 167.265 103.333 167.254 103.361C167.242 103.389 167.236 103.419 167.236 103.449V104.611H163.781V103.449C163.781 103.419 163.775 103.389 163.763 103.361C163.752 103.333 163.735 103.308 163.713 103.286C163.692 103.265 163.667 103.248 163.639 103.236C163.611 103.225 163.581 103.219 163.551 103.219H158.022C157.992 103.219 157.962 103.225 157.934 103.236C157.906 103.248 157.881 103.265 157.859 103.286C157.838 103.308 157.821 103.333 157.809 103.361C157.798 103.389 157.792 103.419 157.792 103.449V104.611H154.336V103.449C154.336 103.419 154.331 103.389 154.319 103.361C154.307 103.333 154.29 103.308 154.269 103.286C154.248 103.265 154.222 103.248 154.194 103.236C154.166 103.225 154.136 103.219 154.106 103.219H148.578C148.547 103.219 148.517 103.225 148.49 103.236C148.462 103.248 148.436 103.265 148.415 103.286C148.393 103.308 148.376 103.333 148.365 103.361C148.353 103.389 148.347 103.419 148.347 103.449V104.611H144.892V103.449C144.892 103.419 144.886 103.389 144.874 103.361C144.863 103.333 144.846 103.308 144.825 103.286C144.803 103.265 144.778 103.248 144.75 103.236C144.722 103.225 144.692 103.219 144.662 103.219H139.133C139.103 103.219 139.073 103.225 139.045 103.236C139.017 103.248 138.992 103.265 138.97 103.286C138.949 103.308 138.932 103.333 138.92 103.361C138.909 103.389 138.903 103.419 138.903 103.449V104.611H135.448V103.449C135.448 103.419 135.442 103.389 135.43 103.361C135.418 103.333 135.401 103.308 135.38 103.286C135.359 103.265 135.333 103.248 135.305 103.236C135.277 103.225 135.247 103.219 135.217 103.219H129.689C129.658 103.219 129.629 103.225 129.601 103.236C129.573 103.248 129.547 103.265 129.526 103.286C129.504 103.308 129.487 103.333 129.476 103.361C129.464 103.389 129.458 103.419 129.458 103.449V104.611H126.003V103.449C126.003 103.419 125.997 103.389 125.986 103.361C125.974 103.333 125.957 103.308 125.936 103.286C125.914 103.265 125.889 103.248 125.861 103.236C125.833 103.225 125.803 103.219 125.773 103.219H120.244C120.214 103.219 120.184 103.225 120.156 103.236C120.128 103.248 120.103 103.265 120.081 103.286C120.06 103.308 120.043 103.333 120.031 103.361C120.02 103.389 120.014 103.419 120.014 103.449V104.611H116.559V103.449C116.559 103.419 116.553 103.389 116.541 103.361C116.529 103.333 116.513 103.308 116.491 103.286C116.47 103.265 116.444 103.248 116.416 103.236C116.388 103.225 116.358 103.219 116.328 103.219H73.0219C72.9916 103.219 72.9617 103.225 72.9337 103.236C72.9058 103.248 72.8804 103.265 72.859 103.286C72.8376 103.308 72.8206 103.333 72.8091 103.361C72.7975 103.389 72.7915 103.419 72.7915 103.449V104.611H69.3362V103.449C69.3362 103.419 69.3303 103.389 69.3187 103.361C69.3071 103.333 69.2902 103.308 69.2688 103.286C69.2474 103.265 69.222 103.248 69.194 103.236C69.1661 103.225 69.1361 103.219 69.1059 103.219H63.5774C63.5472 103.219 63.5172 103.225 63.4893 103.236C63.4613 103.248 63.4359 103.265 63.4145 103.286C63.3931 103.308 63.3762 103.333 63.3646 103.361C63.353 103.389 63.3471 103.419 63.3471 103.449V104.611H59.8918V103.449C59.8918 103.419 59.8858 103.389 59.8742 103.361C59.8627 103.333 59.8457 103.308 59.8243 103.286C59.8029 103.265 59.7775 103.248 59.7496 103.236C59.7216 103.225 59.6917 103.219 59.6614 103.219H54.1329C54.1027 103.219 54.0727 103.225 54.0448 103.236C54.0168 103.248 53.9914 103.265 53.9701 103.286C53.9487 103.308 53.9317 103.333 53.9201 103.361C53.9085 103.389 53.9026 103.419 53.9026 103.449V104.611H50.4473V103.449C50.4473 103.419 50.4413 103.389 50.4298 103.361C50.4182 103.333 50.4012 103.308 50.3798 103.286C50.3584 103.265 50.333 103.248 50.3051 103.236C50.2771 103.225 50.2472 103.219 50.2169 103.219H44.6885C44.6582 103.219 44.6283 103.225 44.6003 103.236C44.5724 103.248 44.547 103.265 44.5256 103.286C44.5042 103.308 44.4872 103.333 44.4756 103.361C44.4641 103.389 44.4581 103.419 44.4581 103.449V104.611H41.0028V103.449C41.0028 103.419 40.9969 103.389 40.9853 103.361C40.9737 103.333 40.9568 103.308 40.9354 103.286C40.914 103.265 40.8886 103.248 40.8606 103.236C40.8327 103.225 40.8027 103.219 40.7725 103.219H35.244C35.2137 103.219 35.1838 103.225 35.1558 103.236C35.1279 103.248 35.1025 103.265 35.0811 103.286C35.0597 103.308 35.0428 103.333 35.0312 103.361C35.0196 103.389 35.0136 103.419 35.0136 103.449V104.611H31.5584V103.449C31.5584 103.419 31.5524 103.389 31.5408 103.361C31.5292 103.333 31.5123 103.308 31.4909 103.286C31.4695 103.265 31.4441 103.248 31.4162 103.236C31.3882 103.225 31.3583 103.219 31.328 103.219H25.7995C25.7693 103.219 25.7393 103.225 25.7114 103.236C25.6834 103.248 25.658 103.265 25.6366 103.286C25.6153 103.308 25.5983 103.333 25.5867 103.361C25.5751 103.389 25.5692 103.419 25.5692 103.449V104.611H22.1139V103.449C22.1139 103.419 22.1079 103.389 22.0964 103.361C22.0848 103.333 22.0678 103.308 22.0464 103.286C22.025 103.265 21.9996 103.248 21.9717 103.236C21.9437 103.225 21.9138 103.219 21.8835 103.219H16.3551C16.3248 103.219 16.2949 103.225 16.2669 103.236C16.239 103.248 16.2136 103.265 16.1922 103.286C16.1708 103.308 16.1538 103.333 16.1422 103.361C16.1307 103.389 16.1247 103.419 16.1247 103.449V104.611H5.52847C4.06223 104.611 2.65604 105.193 1.61925 106.23C0.582464 107.267 1.39689e-06 108.673 0 110.139V112.639C4.19067e-06 114.105 0.582468 115.512 1.61926 116.548C2.65605 117.585 4.06223 118.168 5.52847 118.168H189.35C190.816 118.168 192.223 117.585 193.259 116.548C194.296 115.512 194.879 114.105 194.879 112.639V110.139C194.879 108.673 194.296 107.267 193.259 106.23C192.223 105.193 190.816 104.611 189.35 104.611Z" fill="#372C2E"/>
<path d="M42.9711 93.3688C39.0126 93.3688 35.143 92.1949 31.8516 89.9957C28.5602 87.7965 25.9949 84.6706 24.4801 81.0134C22.9652 77.3563 22.5688 73.332 23.3411 69.4496C24.1134 65.5671 26.0196 62.0009 28.8187 59.2018C31.6177 56.4027 35.184 54.4965 39.0664 53.7242C42.9489 52.9519 46.9732 53.3483 50.6303 54.8632C54.2875 56.378 57.4134 58.9433 59.6126 62.2347C61.8118 65.5261 62.9856 69.3957 62.9856 73.3542C62.9796 78.6605 60.869 83.7478 57.1169 87.5C53.3647 91.2522 48.2774 93.3628 42.9711 93.3688ZM42.9711 53.8663C39.1168 53.8663 35.349 55.0093 32.1442 57.1506C28.9395 59.292 26.4416 62.3356 24.9667 65.8965C23.4917 69.4575 23.1057 73.3758 23.8577 77.1561C24.6096 80.9364 26.4657 84.4088 29.1911 87.1342C31.9165 89.8596 35.3889 91.7157 39.1692 92.4676C42.9495 93.2195 46.8678 92.8336 50.4288 91.3586C53.9897 89.8836 57.0333 87.3858 59.1747 84.1811C61.316 80.9763 62.459 77.2085 62.459 73.3542C62.4531 68.1875 60.398 63.2341 56.7446 59.5807C53.0912 55.9272 48.1378 53.8722 42.9711 53.8663Z" fill="#3F3D56"/>
<path d="M221.522 8.57025H154.368V9.09695H221.522V8.57025Z" fill="#3F3D56"/>
<path d="M300 147.619H106.965V148.145H300V147.619Z" fill="#3F3D56"/>
<path d="M117.894 171.847H50.74V172.374H117.894V171.847Z" fill="#3F3D56"/>
<path d="M131.411 144.842H124.038V152.216H131.411V144.842Z" fill="#DE9E48"/>
<path d="M135.888 148.002H126.934V139.048H135.888V148.002ZM127.324 147.613H135.499V139.438H127.324V147.613Z" fill="#3F3D56"/>
<path d="M217 5.7937H209.626V13.1675H217V5.7937Z" fill="#DE9E48"/>
<path d="M221.477 8.95388H212.523V0H221.477V8.95388ZM212.912 8.56458H221.088V0.3893H212.912V8.56458Z" fill="#3F3D56"/>
<path d="M291.264 144.842H283.891V152.216H291.264V144.842Z" fill="#DE9E48"/>
<path d="M295.741 148.002H286.788V139.048H295.741V148.002ZM287.177 147.613H295.352V139.438H287.177V147.613Z" fill="#3F3D56"/>
<path d="M278.405 61.0861H277.779V43.9258C277.779 42.6215 277.522 41.33 277.023 40.125C276.524 38.92 275.792 37.8251 274.87 36.9029C273.948 35.9806 272.853 35.249 271.648 34.7499C270.443 34.2508 269.151 33.9939 267.847 33.9939H231.491C230.187 33.9939 228.895 34.2508 227.69 34.7499C226.485 35.249 225.39 35.9806 224.468 36.9029C223.546 37.8251 222.814 38.92 222.315 40.125C221.816 41.33 221.559 42.6215 221.559 43.9258V138.068C221.559 139.373 221.816 140.664 222.315 141.869C222.814 143.074 223.546 144.169 224.468 145.091C225.39 146.014 226.485 146.745 227.69 147.244C228.895 147.743 230.187 148 231.491 148H267.847C269.151 148 270.443 147.743 271.648 147.244C272.853 146.745 273.948 146.013 274.87 145.091C275.792 144.169 276.524 143.074 277.023 141.869C277.522 140.664 277.779 139.373 277.779 138.068V73.301H278.405V61.0861Z" fill="#372C2E"/>
<path d="M275.664 44.5095V138.515C275.664 140.482 274.883 142.369 273.492 143.76C272.102 145.151 270.215 145.933 268.248 145.933H231.716C229.749 145.933 227.863 145.151 226.472 143.76C225.081 142.369 224.3 140.482 224.3 138.515V44.5095C224.301 42.5428 225.082 40.6566 226.473 39.2659C227.863 37.8752 229.75 37.0938 231.716 37.0936H236.148C235.93 37.6287 235.847 38.2091 235.906 38.7839C235.965 39.3586 236.165 39.91 236.487 40.3895C236.809 40.869 237.245 41.2619 237.755 41.5335C238.265 41.8051 238.834 41.9472 239.411 41.9472H260.24C260.817 41.9472 261.386 41.8051 261.896 41.5335C262.406 41.2619 262.842 40.869 263.164 40.3895C263.486 39.91 263.686 39.3586 263.745 38.7839C263.804 38.2091 263.721 37.6287 263.503 37.0936H268.248C270.215 37.0938 272.101 37.8752 273.492 39.2659C274.882 40.6566 275.664 42.5428 275.664 44.5095Z" fill="#DE9E48"/>
<path d="M255.423 99.0767H244.541V102.302H255.423V99.0767Z" fill="#3F3D56"/>
<path d="M268.58 73.9683H231.384V75.3504H268.58V73.9683Z" fill="#3F3D56"/>
<path d="M268.58 78.3449H231.384V79.7271H268.58V78.3449Z" fill="#3F3D56"/>
<path d="M268.58 82.7216H231.384V84.1038H268.58V82.7216Z" fill="#3F3D56"/>
<path d="M268.58 87.0984H231.384V88.4805H268.58V87.0984Z" fill="#3F3D56"/>
<path d="M268.58 91.4751H231.384V92.8572H268.58V91.4751Z" fill="#3F3D56"/>
<path d="M251.281 55.6138H244.832V62.0637H251.281V55.6138Z" fill="#F2F2F2"/>
<path d="M247.301 57.2267V65.0587H255.133V57.2267H247.301ZM254.793 64.719H247.64V57.5664H254.793V64.719Z" fill="#3F3D56"/>
<path opacity="0.1" d="M275.664 128.476V138.515C275.664 140.482 274.883 142.369 273.492 143.76C272.102 145.151 270.215 145.933 268.248 145.933H231.716C229.749 145.933 227.863 145.151 226.472 143.76C225.081 142.369 224.3 140.482 224.3 138.515V87.8964L255.078 112.211L255.605 112.628L261.33 117.149L261.865 117.573L275.664 128.476Z" fill="black"/>
<path d="M246.822 142.887C253.202 142.887 258.375 137.714 258.375 131.334C258.375 124.954 253.202 119.782 246.822 119.782C240.442 119.782 235.269 124.954 235.269 131.334C235.269 137.714 240.442 142.887 246.822 142.887Z" fill="#F2F2F2"/>
<path d="M84.3169 172.374C79.7855 172.374 75.3558 171.03 71.588 168.512C67.8203 165.995 64.8837 162.417 63.1496 158.23C61.4155 154.043 60.9617 149.437 61.8458 144.992C62.7298 140.548 64.9119 136.466 68.1161 133.261C71.3203 130.057 75.4028 127.875 79.8471 126.991C84.2915 126.107 88.8982 126.561 93.0848 128.295C97.2713 130.029 100.85 132.966 103.367 136.733C105.885 140.501 107.228 144.931 107.228 149.462C107.221 155.537 104.805 161.36 100.51 165.655C96.2149 169.951 90.3913 172.367 84.3169 172.374ZM84.3169 127.077C79.8897 127.077 75.5618 128.39 71.8807 130.85C68.1995 133.31 65.3304 136.806 63.6362 140.896C61.9419 144.986 61.4986 149.487 62.3624 153.829C63.2261 158.171 65.358 162.16 68.4886 165.291C71.6191 168.421 75.6077 170.553 79.9499 171.417C84.2921 172.28 88.7929 171.837 92.8832 170.143C96.9735 168.449 100.469 165.58 102.929 161.898C105.389 158.217 106.702 153.889 106.702 149.462C106.695 143.527 104.334 137.838 100.138 133.641C95.9414 129.445 90.2517 127.084 84.3169 127.077Z" fill="#3F3D56"/>
<path d="M250.227 140.245C247.362 140.245 244.562 139.395 242.18 137.804C239.798 136.212 237.942 133.95 236.845 131.304C235.749 128.657 235.462 125.745 236.021 122.935C236.58 120.125 237.96 117.545 239.985 115.519C242.011 113.493 244.592 112.114 247.401 111.555C250.211 110.996 253.123 111.283 255.77 112.379C258.417 113.475 260.679 115.332 262.27 117.714C263.862 120.096 264.711 122.896 264.711 125.761C264.707 129.601 263.18 133.282 260.464 135.998C257.749 138.713 254.067 140.241 250.227 140.245ZM250.227 111.803C247.467 111.803 244.768 112.622 242.473 114.155C240.177 115.689 238.388 117.869 237.332 120.419C236.276 122.97 235.999 125.776 236.538 128.484C237.076 131.191 238.406 133.678 240.358 135.63C242.31 137.582 244.797 138.912 247.504 139.45C250.212 139.989 253.018 139.712 255.568 138.656C258.119 137.599 260.299 135.81 261.832 133.515C263.366 131.22 264.185 128.521 264.185 125.761C264.18 122.06 262.709 118.513 260.092 115.896C257.475 113.279 253.928 111.807 250.227 111.803Z" fill="#3F3D56"/>
</g>
<defs>
<clipPath id="clip0_12_165">
<rect width="300" height="172.374" fill="white"/>
</clipPath>
</defs>
</svg>
