<svg width="40" height="33" viewBox="0 0 40 33" fill="none" xmlns="http://www.w3.org/2000/svg">
<g clip-path="url(#clip0_64_500)">
<path d="M40 3.97655C38.5283 4.62924 36.9466 5.07037 35.2866 5.26877C36.981 4.25308 38.2822 2.64482 38.8949 0.728586C37.3093 1.66893 35.553 2.35191 33.6837 2.72003C32.1867 1.12509 30.0539 0.128418 27.6936 0.128418C23.1613 0.128418 19.4869 3.80273 19.4869 8.33472C19.4869 8.9779 19.5596 9.60426 19.6995 10.2049C12.879 9.86264 6.83214 6.59552 2.78459 1.63059C2.0782 2.84264 1.67351 4.25234 1.67351 5.75628C1.67351 8.60334 3.12243 11.1152 5.32441 12.5868C3.97908 12.5442 2.71378 12.1751 1.60723 11.5604C1.60664 11.5947 1.60664 11.6291 1.60664 11.6636C1.60664 15.6397 4.43542 18.9566 8.18962 19.7104C7.50093 19.898 6.77596 19.9982 6.02743 19.9982C5.49866 19.9982 4.98453 19.9468 4.48356 19.851C5.52778 23.1114 8.55847 25.484 12.1495 25.5503C9.34094 27.7512 5.80241 29.0632 1.95764 29.0632C1.29529 29.0632 0.642013 29.0244 0 28.9486C3.63173 31.277 7.94543 32.6355 12.5798 32.6355C27.6745 32.6355 35.9287 20.1308 35.9287 9.28632C35.9287 8.9305 35.9208 8.57657 35.905 8.22469C37.5083 7.06766 38.8997 5.62225 40 3.97655Z" fill="#DE9E48"/>
</g>
<defs>
<clipPath id="clip0_64_500">
<rect width="40" height="32.6562" fill="white"/>
</clipPath>
</defs>
</svg>
